<svg width="20" height="21" viewBox="0 0 20 21" fill="none" xmlns="http://www.w3.org/2000/svg">
<path fill-rule="evenodd" clip-rule="evenodd" d="M11.757 2.31829C12.034 2.39129 12.266 2.58027 12.395 2.83727C12.878 3.80427 13.239 4.3913 13.602 4.8673C13.97 5.3493 14.358 5.74328 14.95 6.33428C16.316 7.70128 17 9.4943 17 11.2843C17 13.0743 16.316 14.8673 14.95 16.2343C12.216 18.9673 7.784 18.9673 5.05 16.2343C3.684 14.8673 3 13.0743 3 11.2843C3 9.4943 3.684 7.70128 5.05 6.33428C5.336 6.04828 5.766 5.96328 6.14 6.11828C6.514 6.27228 6.757 6.63731 6.757 7.04131C6.757 8.16131 6.827 9.01431 7.155 9.69531C7.335 10.0693 7.61601 10.4353 8.10001 10.7623C8.21601 9.70132 8.428 8.4083 8.714 7.1823C8.939 6.2163 9.21899 5.2523 9.55299 4.4483C9.71999 4.0453 9.909 3.66327 10.123 3.33227C10.331 3.01027 10.599 2.68332 10.945 2.45232C11.184 2.29332 11.48 2.24429 11.757 2.31829ZM12.121 15.4053C10.95 16.5773 9.05 16.5773 7.879 15.4053C7.293 14.8203 7 14.0523 7 13.2843C7 13.2843 7.879 13.7843 9.5 13.7843C9.5 12.7843 10 9.78429 10.75 9.28429C11.25 10.2843 11.536 10.5773 12.121 11.1633C12.707 11.7483 13 12.5163 13 13.2843C13 14.0523 12.707 14.8203 12.121 15.4053Z" fill="white"/>
</svg>
