<svg width="17" height="15" viewBox="0 0 17 15" fill="none" xmlns="http://www.w3.org/2000/svg">
<path fill-rule="evenodd" clip-rule="evenodd" d="M5.24835 4.48075C5.24838 4.31201 5.325 4.15018 5.46136 4.03087C5.59773 3.91155 5.78267 3.84451 5.97552 3.84448H12.1466C12.3395 3.84451 12.5244 3.91155 12.6608 4.03087C12.7971 4.15018 12.8737 4.31201 12.8738 4.48075V9.88048C12.8705 10.0473 12.7924 10.2063 12.6564 10.3233C12.5204 10.4402 12.3373 10.5058 12.1466 10.5058C11.9559 10.5058 11.7729 10.4402 11.6369 10.3233C11.5009 10.2063 11.4227 10.0473 11.4195 9.88048V6.01697L5.46125 11.2304C5.32487 11.3497 5.13988 11.4168 4.947 11.4168C4.75411 11.4168 4.56913 11.3497 4.43274 11.2304C4.29634 11.1111 4.21973 10.9492 4.21973 10.7804C4.21973 10.6117 4.29634 10.4498 4.43274 10.3305L10.391 5.11702H5.97552C5.78267 5.11699 5.59773 5.04995 5.46136 4.93063C5.325 4.81132 5.24838 4.64949 5.24835 4.48075Z" fill="white"/>
</svg>
