<svg width="16" height="15" viewBox="0 0 16 15" fill="none" xmlns="http://www.w3.org/2000/svg">
<path d="M3.53114 3.40137C3.53114 3.40137 3.54447 5.40198 4.51885 7.47109C5.5199 9.46279 6.90015 10.7421 8.03879 11.2518C9.2153 10.672 10.3518 9.66553 10.9721 8.58112H7.74226C6.90654 7.85094 6.24896 6.63955 6.09803 5.23935H15.5731C15.1059 7.49059 14.1144 9.53798 13.1699 10.8418C11.8589 12.6497 10.0813 14.0294 8.04572 14.8191H8.01586C4.61752 13.3916 2.78928 11.1431 1.58291 8.60618C0.809052 6.98041 0 4.02851 0 0.0596008H15.9998C16.0024 1.17733 15.9311 2.29391 15.7864 3.40137H3.53114Z" fill="white"/>
</svg>
