<svg width="24" height="24" viewBox="0 0 24 24" fill="none" xmlns="http://www.w3.org/2000/svg">
<path fill-rule="evenodd" clip-rule="evenodd" d="M11.9996 10.8C12.9544 10.8 13.8701 10.4207 14.5452 9.74556C15.2203 9.07043 15.5996 8.15476 15.5996 7.19998C15.5996 6.2452 15.2203 5.32952 14.5452 4.65439C13.8701 3.97926 12.9544 3.59998 11.9996 3.59998C11.0448 3.59998 10.1292 3.97926 9.45402 4.65439C8.77889 5.32952 8.39961 6.2452 8.39961 7.19998C8.39961 8.15476 8.77889 9.07043 9.45402 9.74556C10.1292 10.4207 11.0448 10.8 11.9996 10.8ZM3.59961 21.6C3.59961 20.4969 3.81688 19.4046 4.23902 18.3854C4.66116 17.3663 5.2799 16.4403 6.05991 15.6603C6.83992 14.8803 7.76593 14.2615 8.78507 13.8394C9.8042 13.4172 10.8965 13.2 11.9996 13.2C13.1027 13.2 14.195 13.4172 15.2141 13.8394C16.2333 14.2615 17.1593 14.8803 17.9393 15.6603C18.7193 16.4403 19.3381 17.3663 19.7602 18.3854C20.1823 19.4046 20.3996 20.4969 20.3996 21.6H3.59961Z" fill="white"/>
</svg>
