<svg width="20" height="21" viewBox="0 0 20 21" fill="none" xmlns="http://www.w3.org/2000/svg">
<path d="M2 5.2843C2 4.75387 2.21071 4.24516 2.58579 3.87009C2.96086 3.49502 3.46957 3.2843 4 3.2843H11C11.5304 3.2843 12.0391 3.49502 12.4142 3.87009C12.7893 4.24516 13 4.75387 13 5.2843V9.2843C13 9.81473 12.7893 10.3234 12.4142 10.6985C12.0391 11.0736 11.5304 11.2843 11 11.2843H9L6 14.2843V11.2843H4C3.46957 11.2843 2.96086 11.0736 2.58579 10.6985C2.21071 10.3234 2 9.81473 2 9.2843V5.2843Z" fill="white"/>
<path d="M15 7.2843V9.2843C15 10.3452 14.5786 11.3626 13.8284 12.1127C13.0783 12.8629 12.0609 13.2843 11 13.2843H9.82801L8.06201 15.0513C8.34201 15.2003 8.66101 15.2843 9.00001 15.2843H11L14 18.2843V15.2843H16C16.5304 15.2843 17.0392 15.0736 17.4142 14.6985C17.7893 14.3234 18 13.8147 18 13.2843V9.2843C18 8.75387 17.7893 8.24516 17.4142 7.87009C17.0392 7.49502 16.5304 7.2843 16 7.2843H15Z" fill="white"/>
</svg>
