<?xml version="1.0" standalone="no"?>
<!DOCTYPE svg PUBLIC "-//W3C//DTD SVG 20010904//EN"
 "http://www.w3.org/TR/2001/REC-SVG-20010904/DTD/svg10.dtd">
<svg version="1.0" xmlns="http://www.w3.org/2000/svg"
 width="174.000000pt" height="174.000000pt" viewBox="0 0 174.000000 174.000000"
 preserveAspectRatio="xMidYMid meet">
<metadata>
Created by potrace 1.14, written by Peter Selinger 2001-2017
</metadata>
<g transform="translate(0.000000,174.000000) scale(0.100000,-0.100000)"
fill="#000000" stroke="none">
<path d="M830 1722 c0 -4 -28 -7 -62 -8 -35 -1 -64 -6 -66 -12 -2 -6 -11 -8
-20 -6 -10 4 -7 -2 8 -15 21 -18 23 -22 10 -31 -23 -15 -38 -12 -50 10 -9 16
-8 18 5 14 8 -3 12 -10 9 -15 -3 -5 1 -9 9 -9 25 0 27 12 5 30 -20 16 -26 16
-65 3 -26 -9 -40 -19 -36 -26 4 -6 0 -8 -10 -4 -20 8 -100 -26 -89 -38 4 -4 0
-6 -8 -3 -10 4 -20 -3 -27 -18 -12 -27 -2 -32 17 -9 14 17 36 20 45 5 3 -6 -1
-7 -10 -4 -19 8 -48 -15 -41 -32 3 -7 0 -16 -7 -20 -7 -4 -9 -4 -5 1 4 4 0 14
-8 22 -11 12 -12 18 -3 29 17 21 -4 17 -28 -5 -12 -11 -24 -17 -29 -13 -4 4
-4 2 0 -5 3 -7 -2 -14 -14 -18 -11 -3 -20 -11 -20 -16 0 -6 -4 -8 -8 -5 -11 6
-53 -40 -45 -48 4 -3 0 -6 -7 -6 -19 0 -80 -68 -74 -84 3 -7 -3 -19 -13 -27
-16 -13 -17 -12 -4 4 7 9 10 17 5 17 -11 0 -80 -111 -77 -122 2 -4 -1 -8 -6
-8 -5 0 -11 -10 -15 -22 -3 -13 -6 -25 -7 -28 -1 -3 -10 -23 -22 -45 -11 -22
-19 -41 -18 -42 0 -2 1 -4 0 -5 0 -2 -2 -10 -4 -19 -1 -9 -6 -27 -9 -40 l-6
-24 11 23 c7 12 16 22 22 22 10 0 -7 -26 -33 -49 -13 -12 -13 -13 2 -8 9 3 22
-1 28 -8 7 -8 16 -12 21 -9 5 3 6 -2 3 -11 -6 -13 -9 -13 -23 4 -19 21 -35 16
-37 -11 -1 -10 -5 -29 -8 -44 -5 -17 -3 -23 4 -19 5 3 10 0 10 -8 0 -8 10 -22
22 -32 22 -16 22 -16 -4 -1 -31 18 -38 20 -38 8 0 -5 10 -14 23 -20 19 -10 20
-11 2 -9 -24 2 -30 -36 -9 -54 8 -6 14 -19 13 -28 0 -12 -2 -12 -8 3 -10 25
-21 7 -12 -18 7 -17 8 -18 24 -1 16 15 16 20 3 39 -10 15 -11 27 -5 37 8 12 9
12 7 -1 -1 -8 4 -26 11 -39 13 -23 11 -27 -14 -47 -15 -12 -25 -26 -22 -31 3
-5 9 -23 12 -39 10 -47 10 -48 18 -61 5 -7 6 -13 2 -13 -3 0 -1 -9 5 -20 7
-12 16 -18 23 -13 8 4 8 2 -1 -9 -9 -11 -10 -18 -2 -23 5 -3 10 -15 10 -25 0
-10 5 -20 11 -22 5 -2 11 -10 13 -18 4 -25 27 -64 50 -83 11 -10 15 -15 7 -11
-9 5 -12 3 -7 -5 4 -6 13 -10 19 -9 7 1 22 -3 35 -10 26 -15 31 2 4 17 -9 6
-12 11 -6 11 17 0 37 -27 29 -40 -5 -8 -14 -6 -30 4 -16 11 -26 12 -30 5 -4
-6 2 -13 14 -16 11 -3 18 -9 16 -14 -7 -11 52 -77 76 -84 11 -4 17 -11 14 -16
-4 -5 -2 -9 3 -9 4 0 17 -8 28 -18 52 -47 86 -72 94 -67 4 2 15 -4 25 -15 10
-11 26 -20 37 -20 10 0 18 -4 18 -10 0 -5 9 -10 19 -10 11 0 23 -5 26 -10 5
-8 12 -7 23 2 10 7 14 8 10 4 -10 -11 11 -38 23 -30 5 3 15 2 22 -3 6 -4 17
-8 22 -10 6 -1 21 -4 35 -8 56 -13 140 -14 140 -2 0 8 3 8 8 2 10 -14 32 -17
32 -5 0 5 5 10 11 10 5 0 8 -3 6 -7 -3 -5 28 -8 69 -9 75 -1 83 3 62 24 -7 7
-8 12 -4 12 5 0 15 -8 23 -17 10 -13 16 -15 19 -5 3 6 10 12 15 12 6 0 7 -5 4
-11 -5 -7 -1 -7 11 -1 11 6 38 15 62 22 27 7 40 15 36 22 -5 7 -2 9 9 5 9 -3
34 2 55 11 55 25 152 85 152 96 0 5 -8 2 -17 -5 -16 -13 -17 -12 -4 4 8 10 21
15 28 12 8 -3 27 8 43 23 23 23 27 35 24 68 -2 29 -1 34 6 19 5 -11 9 -17 11
-12 5 21 4 33 -6 39 -7 5 -6 8 1 8 6 0 19 -10 30 -22 10 -13 15 -20 10 -16
-10 8 -52 -29 -44 -38 4 -3 20 7 37 22 l31 27 -28 25 -27 25 29 -17 c25 -16
30 -16 43 -3 13 12 12 16 -2 31 -10 9 -15 20 -11 23 3 4 12 -2 20 -12 10 -14
15 -15 21 -5 4 7 2 16 -6 22 -11 8 -10 9 3 4 20 -6 42 25 29 40 -5 5 -5 18 0
29 9 18 9 18 5 -3 -2 -12 -1 -22 3 -22 9 0 47 81 44 92 -2 5 2 8 7 8 6 0 10 4
10 10 0 5 -8 7 -17 4 -10 -3 -8 1 5 8 12 8 20 17 16 21 -4 4 -13 2 -21 -4 -9
-9 -13 -8 -13 0 0 6 5 11 11 11 5 0 7 6 3 13 -6 9 -4 9 8 -1 14 -11 18 -10 25
5 5 10 8 29 8 43 0 14 3 27 7 30 11 8 18 80 8 80 -5 0 -9 -8 -9 -17 -1 -40 -5
-53 -14 -53 -5 0 -6 8 -2 17 4 10 8 26 9 36 0 10 6 21 12 25 6 4 11 42 11 90
0 45 -4 77 -8 70 -4 -7 -11 -10 -14 -6 -3 3 1 13 10 21 28 28 9 54 -27 36 -11
-6 -19 -5 -24 3 -4 7 -4 10 1 6 4 -4 20 0 36 9 22 13 26 20 18 35 -5 10 -8 18
-5 18 3 0 -1 15 -9 34 -8 18 -11 36 -8 40 4 3 1 6 -6 6 -7 0 -9 5 -6 10 3 6 2
10 -4 10 -6 0 -8 8 -5 17 5 17 5 17 -9 1 -20 -25 -31 -22 -14 3 16 22 11 63
-6 52 -6 -4 -8 0 -5 9 4 8 2 21 -2 29 -7 11 -10 10 -16 -4 -3 -9 -10 -17 -15
-17 -5 0 -2 11 7 25 15 23 13 30 -9 26 -4 -1 -7 4 -5 11 5 26 -90 151 -137
180 -16 10 -26 18 -22 18 4 0 -7 12 -25 28 -35 29 -95 72 -100 72 -11 0 1 -53
13 -61 9 -5 10 -9 2 -9 -6 0 -15 5 -18 10 -4 6 -11 7 -17 4 -7 -4 -8 -2 -4 4
6 10 -4 16 -25 14 -3 -1 -6 5 -6 13 0 8 5 11 10 8 6 -4 8 1 4 11 -4 11 -3 15
4 11 6 -4 8 -13 5 -20 -2 -7 2 -16 10 -19 8 -3 14 -1 14 5 0 26 -26 52 -75 74
-58 27 -69 30 -61 16 6 -9 -35 -41 -51 -41 -4 0 4 8 19 18 38 25 17 46 -57 58
-11 2 -48 10 -82 17 -59 14 -62 13 -72 -7 -11 -21 -11 -21 -7 2 4 19 2 21 -10
11 -10 -8 -14 -8 -14 0 0 6 -5 11 -11 11 -6 0 -8 -10 -5 -22 3 -13 3 -17 0
-10 -3 6 -10 10 -14 7 -5 -3 -12 0 -16 6 -5 8 -3 9 7 4 8 -5 11 -4 6 0 -10 11
-47 17 -47 7z m-85 -31 c-8 -14 -35 -14 -35 -1 0 5 7 7 15 4 8 -4 15 -1 15 7
0 7 3 10 6 6 3 -3 3 -10 -1 -16z m65 9 c0 -4 -12 -7 -26 -7 -14 0 -21 3 -15 7
7 3 18 7 26 7 8 0 15 -4 15 -7z m20 -20 c-32 -28 -38 -25 -10 5 13 14 26 23
28 20 3 -3 -5 -14 -18 -25z m166 8 c-6 -10 -15 -18 -20 -18 -4 0 -3 7 4 15 15
18 -1 20 -18 3 -8 -8 -12 -9 -12 -1 0 13 17 21 41 20 13 -1 14 -5 5 -19z m-61
-17 c-6 -5 -25 10 -25 20 0 5 6 4 14 -3 8 -7 12 -15 11 -17z m81 1 c-18 -16
-18 -16 -6 6 6 13 14 21 18 18 3 -4 -2 -14 -12 -24z m58 1 c10 -25 3 -23 -17
3 -13 18 -14 22 -3 18 8 -3 17 -13 20 -21z m-178 1 c18 -15 18 -15 -2 -5 -12
6 -24 7 -28 4 -3 -3 -6 -1 -6 5 0 16 12 15 36 -4z m254 -14 c0 -13 -49 -30
-56 -19 -3 6 -3 13 0 16 3 4 6 1 6 -5 0 -6 7 -9 15 -6 8 4 15 10 15 16 0 5 -4
6 -10 3 -5 -3 -10 -1 -10 5 0 6 -5 8 -12 4 -7 -4 -8 -3 -4 4 5 8 13 8 31 0 14
-6 25 -14 25 -18z m-524 11 c-4 -5 -3 -11 1 -14 5 -2 2 -2 -5 -1 -7 2 -18 -8
-24 -21 -6 -14 -15 -25 -20 -25 -5 0 -2 10 7 23 8 13 12 27 8 32 -5 4 -3 5 4
1 6 -3 14 -2 18 4 3 5 8 10 11 10 3 0 3 -4 0 -9z m138 -7 c3 -8 2 -12 -4 -9
-6 3 -10 10 -10 16 0 14 7 11 14 -7z m26 6 c0 -5 -2 -10 -4 -10 -3 0 -8 5 -11
10 -3 6 -1 10 4 10 6 0 11 -4 11 -10z m265 -9 c3 -6 -3 -9 -14 -8 -11 0 -17 5
-15 9 7 11 22 10 29 -1z m-489 -23 c4 -7 4 -10 -1 -6 -4 4 -14 3 -22 -3 -8 -8
-13 -8 -13 -1 0 6 6 13 13 15 6 3 13 6 14 6 1 1 5 -5 9 -11z m679 -4 c26 -17
33 -34 14 -34 -5 0 -7 5 -4 10 3 6 1 10 -5 10 -6 0 -13 -7 -16 -15 -4 -8 -11
-15 -17 -15 -6 0 -4 8 5 17 16 15 16 17 0 29 -24 19 -6 17 23 -2z m-615 2 c0
-3 -4 -8 -10 -11 -5 -3 -10 -1 -10 4 0 6 5 11 10 11 6 0 10 -2 10 -4z m574
-26 c-6 -6 -10 -2 -11 12 -2 16 1 18 10 9 7 -7 8 -14 1 -21z m-671 -3 c4 3 7
1 7 -5 0 -17 -20 -15 -26 3 -4 8 -11 12 -17 8 -6 -4 -7 -1 -2 7 6 10 11 10 20
-3 7 -9 15 -14 18 -10z m727 -27 c0 -5 -2 -10 -4 -10 -3 0 -8 5 -11 10 -3 6
-1 10 4 10 6 0 11 -4 11 -10z m-841 -40 c11 -24 11 -24 -3 -6 -11 13 -16 15
-16 6 0 -7 -2 -11 -5 -8 -3 3 -3 13 1 22 7 19 7 19 23 -14z m78 24 c-3 -3 -12
-4 -19 -1 -8 3 -5 6 6 6 11 1 17 -2 13 -5z m878 -6 c5 4 5 2 1 -5 -8 -14 -36
-6 -36 9 0 7 5 6 13 -1 8 -6 18 -7 22 -3z m51 -66 c-8 -8 -19 -11 -25 -8 -14
9 -14 26 0 26 5 0 7 -4 4 -10 -3 -5 -2 -10 3 -10 21 0 21 15 0 39 l-23 26 28
-24 c24 -22 25 -27 13 -39z m-1021 25 c4 5 5 3 1 -4 -7 -13 -36 -6 -36 9 0 5
-5 6 -12 2 -7 -5 -8 -3 -4 5 6 9 12 9 25 -3 10 -9 21 -13 26 -9z m976 0 c-6
-8 -7 -18 -3 -23 4 -4 -1 -2 -10 5 -19 14 -25 26 -8 16 6 -3 10 -1 10 4 0 6 5
11 11 11 8 0 9 -4 0 -13z m-1021 -17 c0 -5 -4 -10 -10 -10 -5 0 -10 5 -10 10
0 6 5 10 10 10 6 0 10 -4 10 -10z m-25 -20 c3 -5 0 -19 -8 -30 -12 -18 -15
-18 -20 -5 -12 29 13 60 28 35z m1135 -15 c7 -8 16 -13 20 -10 5 3 11 1 14 -4
4 -5 2 -12 -4 -16 -6 -4 -8 -11 -5 -16 4 -5 1 -9 -5 -9 -7 0 -10 7 -7 15 4 8
2 17 -3 20 -6 4 -10 1 -10 -4 0 -6 -5 -11 -11 -11 -8 0 -9 4 0 13 11 14 5 27
-11 27 -5 0 -7 -4 -3 -9 3 -5 2 -12 -3 -15 -4 -2 -9 4 -9 15 -2 23 19 25 37 4z
m-1184 -17 c4 -7 4 -10 -1 -6 -14 13 -35 -25 -23 -40 6 -7 8 -15 4 -19 -3 -3
-6 -1 -6 6 0 7 -4 10 -10 6 -5 -3 -6 -13 -3 -22 5 -12 3 -14 -7 -8 -10 6 -12
4 -7 -8 4 -12 2 -14 -10 -10 -12 5 -14 3 -8 -7 5 -9 4 -11 -3 -6 -9 5 -4 18
14 42 15 19 23 34 20 34 -4 0 1 11 10 25 19 29 20 29 30 13z m9 -28 c-3 -5
-11 -10 -16 -10 -6 0 -7 5 -4 10 3 6 11 10 16 10 6 0 7 -4 4 -10z m1254 -23
l25 -32 -28 25 -28 25 7 -24 c5 -17 4 -22 -6 -18 -8 2 -12 11 -10 18 2 8 4 20
4 27 1 19 10 14 36 -21z m-7 -44 c-6 -3 -9 -10 -5 -16 4 -7 -1 -6 -10 2 -18
14 -23 26 -8 16 5 -3 13 0 16 6 4 5 10 7 14 3 3 -4 0 -9 -7 -11z m35 0 c-4 -3
-2 -12 4 -20 7 -8 8 -13 1 -13 -12 0 -23 26 -15 34 4 3 9 6 11 6 3 0 2 -3 -1
-7z m-1414 -44 c-10 -17 -24 -36 -32 -42 -8 -7 -2 7 14 31 32 49 45 57 18 11z
m45 3 c-9 -2 -28 -21 -42 -43 -15 -21 -34 -39 -44 -38 -14 0 -14 2 4 10 11 6
31 28 44 49 16 26 28 36 39 32 14 -6 14 -7 -1 -10z m1375 -8 c6 1 9 1 5 -1 -4
-2 -4 -11 -1 -19 3 -7 9 -11 14 -8 5 3 9 0 9 -5 0 -6 -5 -11 -11 -11 -5 0 -7
-6 -3 -12 4 -8 3 -10 -2 -5 -5 5 -10 13 -10 18 -1 5 -2 14 -3 20 0 5 -6 7 -13
3 -6 -4 -8 -3 -4 4 3 6 2 13 -4 17 -5 3 -10 12 -10 18 0 7 5 4 11 -5 5 -9 15
-16 22 -14z m-1413 -78 c0 -3 -4 -8 -10 -11 -5 -3 -10 -1 -10 4 0 6 5 11 10
11 6 0 10 -2 10 -4z m1467 -18 c-3 -8 -6 -5 -6 6 -1 11 2 17 5 13 3 -3 4 -12
1 -19z m-1490 -11 c4 -7 0 -8 -13 -3 -10 5 -24 9 -31 9 -7 0 -10 4 -8 8 6 9
43 0 52 -14z m1503 -16 c-6 -12 -16 -19 -21 -15 -6 4 -3 13 8 24 23 22 28 18
13 -9z m-1525 -1 c3 -5 2 -10 -4 -10 -5 0 -13 5 -16 10 -3 6 -2 10 4 10 5 0
13 -4 16 -10z m-3 -25 c2 3 5 -1 5 -9 0 -8 -3 -15 -6 -14 -19 2 -24 -4 -11
-12 8 -5 10 -10 4 -10 -6 0 -19 10 -30 22 -13 16 -14 19 -2 10 11 -9 18 -10
23 -2 3 5 1 10 -4 10 -6 0 -11 5 -11 11 0 8 4 9 13 0 8 -6 16 -9 19 -6z m1553
-25 c-3 -5 -2 -10 3 -10 6 0 12 -7 16 -15 3 -8 2 -14 -2 -14 -21 4 -32 -2 -26
-13 4 -7 3 -9 -1 -5 -14 12 -15 40 -3 54 12 15 22 17 13 3z m-1595 -31 c-12
-9 -10 -10 9 -5 17 3 21 2 13 -6 -5 -5 -20 -7 -32 -3 -18 6 -20 9 -9 16 20 13
37 11 19 -2z m1625 -40 c0 -8 -10 -15 -22 -15 -12 -1 -20 2 -17 7 2 4 11 6 19
2 17 -6 21 12 5 20 -6 3 -5 4 2 3 7 -2 13 -9 13 -17z m-1613 -6 c-6 -3 -10 -9
-6 -14 3 -5 0 -9 -6 -9 -6 0 -8 -5 -4 -12 4 -7 3 -8 -5 -4 -6 4 -8 13 -5 19
15 26 27 37 33 31 3 -4 0 -9 -7 -11z m1623 -32 c-3 -6 -11 -9 -16 -6 -5 4 -9
1 -9 -5 0 -6 -4 -8 -10 -5 -17 11 -11 24 10 20 11 -2 20 1 20 7 0 6 3 9 6 5 3
-3 3 -11 -1 -16z m15 -55 c0 -2 -7 -6 -15 -10 -8 -3 -15 -1 -15 4 0 6 7 10 15
10 8 0 15 -2 15 -4z m-1686 -21 c3 -8 1 -15 -4 -15 -6 0 -10 7 -10 15 0 8 2
15 4 15 2 0 6 -7 10 -15z m30 0 c3 -8 1 -15 -3 -15 -5 0 -11 7 -15 15 -3 8 -1
15 3 15 5 0 11 -7 15 -15z m1620 -25 c-5 -5 -10 3 -11 18 -1 22 0 24 9 8 6
-10 6 -22 2 -26z m-1637 -22 c-3 -8 -6 -5 -6 6 -1 11 2 17 5 13 3 -3 4 -12 1
-19z m1668 2 c4 -6 -1 -7 -11 -3 -12 4 -15 3 -10 -5 4 -7 2 -12 -3 -12 -12 0
-14 13 -4 23 9 10 21 9 28 -3z m-11 -45 c-4 -8 -10 -15 -15 -15 -4 0 -6 7 -3
15 4 8 10 15 15 15 4 0 6 -7 3 -15z m-1634 -9 c0 -3 -4 -8 -10 -11 -5 -3 -10
-1 -10 4 0 6 5 11 10 11 6 0 10 -2 10 -4z m1650 -5 c0 -6 -11 -23 -25 -38 -15
-17 -23 -21 -19 -10 3 9 10 17 14 17 5 0 12 9 15 20 7 21 15 27 15 11z m-16
-66 c-10 -8 -23 -15 -28 -15 -6 0 -1 7 10 15 10 8 23 15 28 15 6 0 1 -7 -10
-15z m-1651 -56 c-15 -16 -22 -18 -28 -8 -5 7 -4 10 2 6 5 -3 16 3 23 13 8 11
16 17 19 14 3 -2 -4 -14 -16 -25z m1631 7 c-8 -20 -21 -21 -21 -1 0 8 4 12 9
9 4 -3 8 0 8 7 0 7 2 10 5 7 3 -3 3 -13 -1 -22z m-1609 -16 c-4 -6 -2 -17 4
-24 8 -9 7 -13 -4 -13 -8 0 -12 4 -9 9 3 4 0 8 -7 8 -8 0 -8 4 1 15 14 17 24
20 15 5z m-4 -52 c5 1 9 -2 9 -7 0 -6 -9 -9 -20 -8 -10 1 -17 3 -15 5 2 3 0
14 -6 26 -10 21 -10 21 6 1 9 -11 21 -19 26 -17z m1619 10 c11 -22 10 -22 -4
-4 -15 19 -16 18 -25 -5 -5 -13 -10 -19 -10 -12 -1 18 10 43 20 43 4 0 13 -10
19 -22z m-4 -55 c-3 -4 -6 -1 -6 6 0 7 -4 9 -10 6 -6 -4 -7 1 -3 11 6 15 7 15
15 -1 6 -9 7 -19 4 -22z m-1626 7 c0 -5 -2 -10 -4 -10 -3 0 -8 5 -11 10 -3 6
-1 10 4 10 6 0 11 -4 11 -10z m35 -8 c-3 -3 -11 0 -18 7 -9 10 -8 11 6 5 10
-3 15 -9 12 -12z m1547 -14 c-8 -8 -9 -4 -5 13 4 13 8 18 11 10 2 -7 -1 -18
-6 -23z m-1540 -22 c-4 -14 -2 -17 9 -11 8 5 11 4 6 0 -4 -5 -1 -16 5 -25 7
-9 0 -2 -17 14 -16 17 -33 30 -37 29 -4 -2 -8 1 -8 6 0 5 11 8 23 7 18 -1 23
-6 19 -20z m1538 -6 c0 -5 -5 -10 -11 -10 -5 0 -7 5 -4 10 3 6 8 10 11 10 2 0
4 -4 4 -10z m-1520 -51 c21 -18 27 -27 15 -23 -18 7 -18 6 -6 -9 7 -9 9 -17 5
-17 -10 0 -38 39 -39 53 0 4 -7 12 -15 17 -8 5 -10 10 -5 9 6 0 26 -13 45 -30z
m1491 4 c-12 -20 -14 -14 -5 12 4 9 9 14 11 11 3 -2 0 -13 -6 -23z m39 -4 c0
-5 -5 -7 -12 -3 -8 5 -9 0 -5 -16 4 -16 3 -20 -5 -12 -6 6 -8 18 -5 26 7 18
27 22 27 5z m-1483 -45 c-4 -4 3 -21 14 -38 l21 -31 -25 27 c-14 15 -29 24
-33 20 -5 -4 -2 1 5 11 7 9 16 17 19 17 3 0 2 -3 -1 -6z m1427 -9 c-4 -9 -16
-20 -28 -26 -19 -9 -19 -9 -3 4 9 8 17 19 17 26 0 6 4 11 10 11 5 0 7 -7 4
-15z m-1404 -83 c0 -3 -8 2 -18 11 -10 10 -22 14 -26 10 -4 -4 -4 0 0 10 6 16
8 16 25 -4 11 -12 19 -24 19 -27z m1410 40 c0 -5 -7 -9 -15 -9 -8 0 -15 4 -15
9 0 4 7 8 15 8 8 0 15 -4 15 -8z m-66 -71 c-4 -3 -9 0 -11 7 -3 6 -10 9 -15 6
-7 -4 -8 -2 -4 5 6 9 11 9 22 0 8 -6 12 -15 8 -18z m-1264 -52 c0 -5 -5 -9
-11 -9 -5 0 -7 5 -4 10 3 6 1 10 -4 10 -6 0 -11 5 -11 11 0 8 5 8 15 -1 8 -7
15 -16 15 -21z m-36 6 c3 -8 1 -15 -4 -15 -6 0 -10 7 -10 15 0 8 2 15 4 15 2
0 6 -7 10 -15z m57 -28 c-6 -8 -8 -17 -4 -20 9 -10 25 -9 19 1 -3 5 1 9 9 9
20 0 19 -13 -1 -21 -9 -4 -24 0 -34 9 -9 8 -19 12 -22 9 -3 -3 -9 -1 -12 5 -4
6 2 8 14 6 11 -2 20 0 20 6 0 5 5 9 11 9 8 0 9 -4 0 -13z m1149 -7 c-13 -9
-13 -11 0 -20 9 -6 10 -10 3 -10 -15 0 -26 17 -18 30 3 6 12 10 18 10 7 0 6
-4 -3 -10z m-20 -35 c7 -8 17 -12 23 -8 6 3 7 1 3 -6 -6 -9 -11 -9 -21 -1 -8
7 -15 7 -19 1 -3 -5 -3 -11 1 -14 5 -2 2 -2 -6 0 -8 2 -22 -4 -31 -12 -14 -12
-20 -13 -26 -4 -5 8 -3 10 6 4 10 -6 12 -4 7 8 -4 12 -2 14 10 10 12 -5 14 -3
8 7 -6 10 -4 12 8 7 9 -3 19 -2 22 3 3 4 -1 11 -7 13 -8 4 -9 6 -2 6 6 1 17
-6 24 -14z m-1023 -37 c13 5 16 -29 4 -41 -8 -8 -17 -5 -31 11 -12 12 -16 22
-10 22 6 0 13 -7 16 -15 9 -22 24 -18 24 6 0 11 -4 18 -9 14 -10 -5 -31 25
-31 42 1 4 7 -3 15 -17 7 -14 17 -24 22 -22z m-53 17 c11 -8 15 -15 10 -15 -6
0 -19 7 -30 15 -10 8 -14 14 -9 14 6 0 19 -6 29 -14z m954 -68 c-31 -22 -43
-26 -52 -16 -8 9 -8 10 1 5 16 -9 73 33 73 53 0 13 2 14 9 2 7 -11 -1 -22 -31
-44z m-851 17 c-3 -3 -12 -4 -19 -1 -8 3 -5 6 6 6 11 1 17 -2 13 -5z m34 -11
c13 -16 12 -17 -3 -4 -17 13 -22 21 -14 21 2 0 10 -8 17 -17z m794 7 c-3 -5
-12 -10 -18 -10 -7 0 -6 4 3 10 19 12 23 12 15 0z m65 -15 c-7 -9 -15 -13 -19
-10 -3 3 1 10 9 15 21 14 24 12 10 -5z m-910 1 c0 -3 -4 -8 -10 -11 -5 -3 -10
-1 -10 4 0 6 5 11 10 11 6 0 10 -2 10 -4z m36 -14 c1 -7 0 -8 -3 -2 -2 5 -9 8
-14 4 -5 -3 -9 0 -9 6 0 15 23 7 26 -8z m94 -66 c0 -4 -9 2 -20 15 -14 17 -19
20 -20 9 0 -13 -2 -13 -9 -1 -5 8 -7 21 -3 30 5 14 2 13 -15 -1 -11 -10 -23
-18 -28 -18 -4 0 2 9 15 20 l23 20 28 -32 c16 -18 28 -37 29 -42z m750 71 c0
-2 -10 -12 -22 -23 l-23 -19 19 23 c18 21 26 27 26 19z m-718 -45 c8 4 14 -3
14 -18 1 -13 -2 -24 -7 -24 -5 0 -8 4 -6 8 1 4 -12 21 -28 37 -17 17 -21 22
-8 11 12 -10 28 -16 35 -14z m644 23 c4 -8 10 -12 15 -9 5 3 9 3 9 0 0 -15
-19 -12 -33 5 -9 10 -12 19 -7 19 6 0 13 -7 16 -15z m-71 -28 c-8 -13 -13 -27
-10 -30 3 -4 2 -5 -2 -2 -3 3 -13 -1 -21 -8 -13 -9 -14 -9 -8 1 4 7 2 12 -7
12 -8 0 -20 6 -26 13 -8 10 -7 14 4 14 8 0 12 -4 10 -8 -3 -3 4 -9 16 -12 15
-4 23 1 31 19 6 13 15 24 20 24 5 0 2 -10 -7 -23z m55 9 c0 -18 -27 -29 -36
-14 -4 7 -3 8 5 4 6 -4 14 0 17 8 8 20 14 21 14 2z m-80 -6 c0 -5 -5 -10 -11
-10 -5 0 -7 5 -4 10 3 6 8 10 11 10 2 0 4 -4 4 -10z m-506 -16 c3 -8 2 -12 -4
-9 -6 3 -10 10 -10 16 0 14 7 11 14 -7z m446 -20 c0 -8 -4 -14 -8 -14 -4 0 -8
9 -8 19 0 11 4 17 8 15 4 -3 8 -12 8 -20z m-410 6 c0 -5 -4 -10 -10 -10 -5 0
-10 5 -10 10 0 6 5 10 10 10 6 0 10 -4 10 -10z m53 -1 c-6 -6 -9 -19 -6 -28 3
-11 1 -11 -7 3 -10 15 -9 20 1 27 19 12 25 11 12 -2z m327 -4 c0 -8 -4 -17
-10 -20 -5 -3 -7 0 -4 9 5 12 0 14 -23 10 -16 -2 -23 -1 -16 4 21 13 53 12 53
-3z m-259 -13 c-7 -2 -18 1 -23 6 -8 8 -4 9 13 5 13 -4 18 -8 10 -11z m33 2
c3 -8 2 -12 -4 -9 -6 3 -10 10 -10 16 0 14 7 11 14 -7z m36 -5 c-7 -11 -14
-18 -17 -15 -3 3 0 12 7 21 18 21 23 19 10 -6z m40 6 c-7 -9 -15 -13 -19 -10
-3 3 1 10 9 15 21 14 24 12 10 -5z m35 5 c3 -5 1 -10 -4 -10 -6 0 -11 5 -11
10 0 6 2 10 4 10 3 0 8 -4 11 -10z m51 -18 c-4 -3 -14 2 -24 12 -16 18 -16 18
6 6 13 -6 21 -14 18 -18z m-346 8 c0 -5 -2 -10 -4 -10 -3 0 -8 5 -11 10 -3 6
-1 10 4 10 6 0 11 -4 11 -10z m116 -1 c3 -6 1 -16 -5 -22 -9 -9 -10 -7 -5 7 5
13 4 17 -4 12 -7 -4 -12 -2 -12 3 0 14 17 14 26 0z m-61 -9 c3 -6 -1 -7 -9 -4
-18 7 -21 14 -7 14 6 0 13 -4 16 -10z m105 -10 c-18 -12 -30 -13 -30 -2 0 4
10 9 22 9 18 2 20 0 8 -7z m120 0 c0 -5 -2 -10 -4 -10 -3 0 -8 5 -11 10 -3 6
-1 10 4 10 6 0 11 -4 11 -10z m40 0 c0 -5 -7 -7 -15 -4 -8 4 -15 8 -15 10 0 2
7 4 15 4 8 0 15 -4 15 -10z"/>
<path d="M317 1473 c-4 -3 -7 -11 -7 -17 0 -6 5 -5 12 2 6 6 9 14 7 17 -3 3
-9 2 -12 -2z"/>
<path d="M1660 1110 c0 -5 5 -10 11 -10 5 0 7 5 4 10 -3 6 -8 10 -11 10 -2 0
-4 -4 -4 -10z"/>
</g>
</svg>
