<svg width="33" height="21" viewBox="0 0 33 21" fill="none" xmlns="http://www.w3.org/2000/svg">
<rect x="1.41016" y="1.21423" width="30.28" height="19" rx="9.5" stroke="#A3A3AC"/>
<path d="M8.9121 13.8274V11.475H6.57726V10.4919H8.9121V8.15703H9.9069V10.4919H12.2417V11.475H9.9069V13.8274H8.9121ZM17.3737 15.2142H16.3204V8.50228C16.0668 8.74415 15.7333 8.98603 15.3198 9.2279C14.9101 9.46977 14.5415 9.65117 14.2138 9.77211V8.75391C14.8029 8.47692 15.3178 8.14142 15.7586 7.74741C16.1995 7.35339 16.5116 6.97107 16.6949 6.60046H17.3737V15.2142ZM23.4537 15.2142V13.1603H19.732V12.1947L23.6468 6.63557H24.507V12.1947H25.6656V13.1603H24.507V15.2142H23.4537ZM23.4537 12.1947V8.32673L20.7677 12.1947H23.4537Z" fill="#A3A3AC"/>
</svg>
