<svg width="27" height="21" viewBox="0 0 27 21" fill="none" xmlns="http://www.w3.org/2000/svg">
<rect x="0.839844" y="1.0495" width="24.89" height="19" rx="9.5" stroke="#A3A3AC"/>
<path d="M8.59619 13.5451V10.9933H6.06348V9.92694H8.59619V7.39423H9.67529V9.92694H12.208V10.9933H9.67529V13.5451H8.59619ZM19.4761 13.9514V15.0495H13.3252C13.3167 14.7744 13.3612 14.5099 13.4585 14.256C13.6151 13.8371 13.8647 13.4245 14.2075 13.0182C14.5545 12.612 15.0539 12.1423 15.7056 11.6091C16.717 10.7796 17.4004 10.1237 17.7559 9.6413C18.1113 9.15464 18.2891 8.6955 18.2891 8.26385C18.2891 7.81106 18.1261 7.4302 17.8003 7.12128C17.4787 6.80813 17.0576 6.65155 16.5371 6.65155C15.987 6.65155 15.5469 6.81659 15.2168 7.14667C14.8867 7.47675 14.7196 7.93378 14.7153 8.51776L13.541 8.39716C13.6214 7.52118 13.924 6.85468 14.4487 6.39764C14.9735 5.93638 15.6781 5.70575 16.5625 5.70575C17.4554 5.70575 18.1621 5.95331 18.6826 6.44843C19.2031 6.94354 19.4634 7.55715 19.4634 8.28925C19.4634 8.66164 19.3872 9.02769 19.2349 9.38739C19.0825 9.74709 18.8286 10.1258 18.4731 10.5236C18.1219 10.9214 17.5358 11.4673 16.7148 12.1613C16.0293 12.7368 15.5892 13.1283 15.3945 13.3356C15.1999 13.5388 15.0391 13.744 14.9121 13.9514H19.4761Z" fill="#A3A3AC"/>
</svg>
