<svg width="27" height="21" viewBox="0 0 27 21" fill="none" xmlns="http://www.w3.org/2000/svg">
<rect x="1.47021" y="1.31104" width="24.92" height="19" rx="9.5" stroke="#A3A3AC"/>
<path d="M9.22656 13.8066V11.2549H6.69385V10.1885H9.22656V7.65576H10.3057V10.1885H12.8384V11.2549H10.3057V13.8066H9.22656ZM14.1079 12.8545L15.2505 12.7021C15.3817 13.3496 15.6038 13.8172 15.917 14.105C16.2344 14.3885 16.6195 14.5303 17.0723 14.5303C17.6097 14.5303 18.0625 14.3441 18.4307 13.9717C18.8031 13.5993 18.9893 13.138 18.9893 12.5879C18.9893 12.0632 18.8179 11.6315 18.4751 11.293C18.1323 10.9502 17.6965 10.7788 17.1675 10.7788C16.9517 10.7788 16.6829 10.8211 16.3613 10.9058L16.4883 9.90283C16.5645 9.9113 16.6258 9.91553 16.6724 9.91553C17.159 9.91553 17.597 9.78857 17.9863 9.53467C18.3757 9.28076 18.5703 8.88932 18.5703 8.36035C18.5703 7.94141 18.4285 7.5944 18.145 7.31934C17.8615 7.04427 17.4954 6.90674 17.0469 6.90674C16.6025 6.90674 16.2323 7.04639 15.936 7.32568C15.6398 7.60498 15.4494 8.02393 15.3647 8.58252L14.2222 8.37939C14.3618 7.61344 14.6792 7.021 15.1743 6.60205C15.6694 6.17887 16.2852 5.96729 17.0215 5.96729C17.5293 5.96729 17.9969 6.07731 18.4243 6.29736C18.8517 6.51318 19.1776 6.80941 19.4019 7.18604C19.6304 7.56266 19.7446 7.96257 19.7446 8.38574C19.7446 8.78776 19.6367 9.15381 19.4209 9.48389C19.2051 9.81396 18.8856 10.0763 18.4624 10.271C19.0125 10.3979 19.4399 10.6624 19.7446 11.0645C20.0493 11.4622 20.2017 11.9616 20.2017 12.5625C20.2017 13.375 19.9054 14.0648 19.313 14.6318C18.7205 15.1947 17.9715 15.4761 17.0659 15.4761C16.2492 15.4761 15.57 15.2327 15.0283 14.7461C14.4909 14.2594 14.1841 13.6289 14.1079 12.8545Z" fill="#A3A3AC"/>
</svg>
