<svg width="27" height="21" viewBox="0 0 27 21" fill="none" xmlns="http://www.w3.org/2000/svg">
<rect x="0.560059" y="0.741699" width="24.98" height="19" rx="9.5" stroke="#A3A3AC"/>
<path d="M8.31641 13.2373V10.6855H5.78369V9.61914H8.31641V7.08643H9.39551V9.61914H11.9282V10.6855H9.39551V13.2373H8.31641ZM13.1914 12.3042L14.3911 12.2026C14.48 12.7866 14.6852 13.2267 15.0068 13.5229C15.3327 13.8149 15.7241 13.9609 16.1812 13.9609C16.7313 13.9609 17.1968 13.7536 17.5776 13.3389C17.9585 12.9242 18.1489 12.374 18.1489 11.6885C18.1489 11.0368 17.9648 10.5226 17.5967 10.146C17.2327 9.76937 16.7546 9.58105 16.1621 9.58105C15.7939 9.58105 15.4618 9.66569 15.1655 9.83496C14.8693 10 14.6366 10.2158 14.4673 10.4824L13.3945 10.3428L14.2959 5.56299H18.9233V6.65479H15.21L14.7085 9.15576C15.2671 8.76644 15.8532 8.57178 16.4668 8.57178C17.2793 8.57178 17.9648 8.85319 18.5234 9.41602C19.082 9.97884 19.3613 10.7025 19.3613 11.5869C19.3613 12.429 19.1159 13.1569 18.625 13.7705C18.0283 14.5238 17.2137 14.9004 16.1812 14.9004C15.3348 14.9004 14.6429 14.6634 14.1055 14.1895C13.5723 13.7155 13.2676 13.0871 13.1914 12.3042Z" fill="#A3A3AC"/>
</svg>
