<svg width="27" height="21" viewBox="0 0 27 21" fill="none" xmlns="http://www.w3.org/2000/svg">
<rect x="1.41016" y="0.947754" width="24.8" height="19" rx="9.5" stroke="#A3A3AC"/>
<path d="M9.1665 13.4434V10.8916H6.63379V9.8252H9.1665V7.29248H10.2456V9.8252H12.7783V10.8916H10.2456V13.4434H9.1665ZM14.1177 6.86084V5.7627H20.1416V6.65137C19.5492 7.2819 18.9609 8.11979 18.377 9.16504C17.7972 10.2103 17.3486 11.2852 17.0312 12.3896C16.8027 13.1683 16.6567 14.021 16.5933 14.9478H15.4189C15.4316 14.2157 15.5755 13.3312 15.8506 12.2944C16.1257 11.2576 16.5192 10.259 17.0312 9.29834C17.5475 8.3335 18.0955 7.521 18.6753 6.86084H14.1177Z" fill="#A3A3AC"/>
</svg>
