<svg width="52" height="21" viewBox="0 0 52 21" fill="none" xmlns="http://www.w3.org/2000/svg">
<rect x="0.5" y="0.686768" width="50.28" height="19" rx="9.5" stroke="#CCCCCC"/>
<rect x="7" y="4.18677" width="12" height="12" rx="6" fill="#CCCCCC"/>
<g clip-path="url(#clip0_3229_811)">
<g filter="url(#filter0_d_3229_811)">
<path d="M23.8852 14.1868V5.53541H27.1309C27.7919 5.53541 28.321 5.62393 28.7184 5.80097C29.1197 5.97407 29.4325 6.24357 29.6567 6.60945C29.8849 6.9714 29.999 7.35105 29.999 7.74841C29.999 8.11823 29.8987 8.46641 29.698 8.79295C29.4974 9.11949 29.1944 9.38308 28.7892 9.58372C29.3125 9.73716 29.7138 9.99879 29.9931 10.3686C30.2763 10.7384 30.418 11.1751 30.418 11.6787C30.418 12.0839 30.3314 12.4616 30.1583 12.8118C29.9891 13.158 29.7787 13.4255 29.5269 13.6143C29.2751 13.8032 28.9584 13.9468 28.5768 14.0451C28.1991 14.1396 27.7348 14.1868 27.184 14.1868H23.8852ZM25.0301 9.17063H26.9008C27.4083 9.17063 27.7722 9.13719 27.9925 9.07031C28.2837 8.98376 28.502 8.84016 28.6476 8.63951C28.7971 8.43887 28.8718 8.18708 28.8718 7.88414C28.8718 7.59694 28.803 7.34515 28.6653 7.12877C28.5276 6.90845 28.3309 6.75895 28.0751 6.68027C27.8194 6.59765 27.3808 6.55634 26.7592 6.55634H25.0301V9.17063ZM25.0301 13.1658H27.184C27.5539 13.1658 27.8135 13.1521 27.963 13.1245C28.2266 13.0773 28.4469 12.9986 28.624 12.8885C28.801 12.7783 28.9466 12.619 29.0607 12.4105C29.1748 12.198 29.2318 11.9541 29.2318 11.6787C29.2318 11.3561 29.1492 11.0768 28.984 10.8407C28.8187 10.6007 28.5886 10.4335 28.2935 10.3391C28.0024 10.2407 27.5814 10.1916 27.0306 10.1916H25.0301V13.1658ZM31.4625 11.0532C31.4625 9.89256 31.7851 9.03293 32.4303 8.47427C32.9693 8.01004 33.6263 7.77792 34.4014 7.77792C35.263 7.77792 35.9672 8.06118 36.5141 8.62771C37.0609 9.1903 37.3343 9.96928 37.3343 10.9646C37.3343 11.7712 37.2124 12.4065 36.9685 12.8708C36.7285 13.3311 36.3764 13.6891 35.9121 13.9448C35.4518 14.2005 34.9482 14.3284 34.4014 14.3284C33.5241 14.3284 32.8139 14.0471 32.271 13.4845C31.732 12.9219 31.4625 12.1115 31.4625 11.0532ZM32.5543 11.0532C32.5543 11.8557 32.7293 12.4577 33.0795 12.859C33.4296 13.2563 33.8703 13.455 34.4014 13.455C34.9286 13.455 35.3672 13.2544 35.7174 12.8531C36.0675 12.4518 36.2426 11.84 36.2426 11.0177C36.2426 10.2427 36.0656 9.65651 35.7115 9.25915C35.3613 8.85786 34.9246 8.65722 34.4014 8.65722C33.8703 8.65722 33.4296 8.85589 33.0795 9.25325C32.7293 9.65061 32.5543 10.2506 32.5543 11.0532ZM40.9047 13.2367L41.0581 14.175C40.7591 14.2379 40.4916 14.2694 40.2555 14.2694C39.87 14.2694 39.571 14.2084 39.3585 14.0864C39.1461 13.9645 38.9966 13.8051 38.91 13.6084C38.8235 13.4078 38.7802 12.9888 38.7802 12.3515V8.74574H38.0012V7.91955H38.7802V6.3675L39.8365 5.73015V7.91955H40.9047V8.74574H39.8365V12.4105C39.8365 12.7134 39.8542 12.9081 39.8896 12.9947C39.929 13.0813 39.9899 13.1501 40.0726 13.2012C40.1591 13.2524 40.2811 13.278 40.4384 13.278C40.5565 13.278 40.7119 13.2642 40.9047 13.2367Z" fill="white"/>
</g>
</g>
<defs>
<filter id="filter0_d_3229_811" x="21.8853" y="3.53541" width="21.1729" height="12.793" filterUnits="userSpaceOnUse" color-interpolation-filters="sRGB">
<feFlood flood-opacity="0" result="BackgroundImageFix"/>
<feColorMatrix in="SourceAlpha" type="matrix" values="0 0 0 0 0 0 0 0 0 0 0 0 0 0 0 0 0 0 127 0" result="hardAlpha"/>
<feOffset/>
<feGaussianBlur stdDeviation="1"/>
<feComposite in2="hardAlpha" operator="out"/>
<feColorMatrix type="matrix" values="0 0 0 0 0 0 0 0 0 0 0 0 0 0 0 0 0 0 0.5 0"/>
<feBlend mode="normal" in2="BackgroundImageFix" result="effect1_dropShadow_3229_811"/>
<feBlend mode="normal" in="SourceGraphic" in2="effect1_dropShadow_3229_811" result="shape"/>
</filter>
<clipPath id="clip0_3229_811">
<rect width="21.28" height="16" fill="white" transform="translate(23 2.18677)"/>
</clipPath>
</defs>
</svg>
