<svg width="182" height="21" viewBox="0 0 182 21" fill="none" xmlns="http://www.w3.org/2000/svg">
<rect x="0.839844" y="0.893066" width="180.11" height="19" rx="9.5" stroke="white"/>
<rect x="7.33984" y="4.39307" width="12" height="12" rx="6" fill="white"/>
<g clip-path="url(#clip0_3229_1751)">
<g filter="url(#filter0_d_3229_1751)">
<path d="M30.9824 11.1304L32.2139 11.4414C31.9557 12.4528 31.4902 13.2251 30.8174 13.7583C30.1488 14.2873 29.3299 14.5518 28.3608 14.5518C27.3579 14.5518 26.5412 14.3486 25.9106 13.9424C25.2843 13.5319 24.8062 12.9395 24.4761 12.165C24.1502 11.3906 23.9873 10.5591 23.9873 9.67041C23.9873 8.70133 24.1714 7.8571 24.5396 7.1377C24.9119 6.41406 25.4388 5.86605 26.1201 5.49365C26.8057 5.11702 27.5589 4.92871 28.3799 4.92871C29.3109 4.92871 30.0938 5.16569 30.7285 5.63965C31.3633 6.11361 31.8055 6.78011 32.0552 7.63916L30.8428 7.9248C30.627 7.24772 30.3138 6.75472 29.9033 6.4458C29.4928 6.13688 28.9766 5.98242 28.3545 5.98242C27.6393 5.98242 27.0405 6.15381 26.5581 6.49658C26.0799 6.83936 25.7435 7.30062 25.5488 7.88037C25.3542 8.45589 25.2568 9.05046 25.2568 9.66406C25.2568 10.4554 25.3711 11.1473 25.5996 11.7397C25.8324 12.328 26.1921 12.7681 26.6787 13.0601C27.1654 13.3521 27.6922 13.498 28.2593 13.498C28.9491 13.498 29.533 13.2992 30.0112 12.9014C30.4894 12.5036 30.8132 11.9132 30.9824 11.1304ZM33.166 11.0225C33.166 9.77409 33.513 8.84945 34.207 8.24854C34.7868 7.74919 35.4935 7.49951 36.3271 7.49951C37.2539 7.49951 38.0114 7.8042 38.5996 8.41357C39.1878 9.01872 39.4819 9.85661 39.4819 10.9272C39.4819 11.7948 39.3507 12.4782 39.0884 12.9775C38.8302 13.4727 38.4515 13.8577 37.9521 14.1328C37.457 14.4079 36.9154 14.5454 36.3271 14.5454C35.3835 14.5454 34.6196 14.2428 34.0356 13.6377C33.4559 13.0326 33.166 12.1608 33.166 11.0225ZM34.3403 11.0225C34.3403 11.8857 34.5286 12.5332 34.9053 12.9648C35.2819 13.3923 35.7559 13.606 36.3271 13.606C36.8942 13.606 37.366 13.3901 37.7427 12.9585C38.1193 12.5269 38.3076 11.8688 38.3076 10.9844C38.3076 10.1507 38.1172 9.52018 37.7363 9.09277C37.3597 8.66113 36.89 8.44531 36.3271 8.44531C35.7559 8.44531 35.2819 8.65902 34.9053 9.08643C34.5286 9.51383 34.3403 10.1592 34.3403 11.0225ZM40.8276 14.3931V7.65186H41.8496V8.59766C42.0612 8.26758 42.3426 8.00309 42.6938 7.8042C43.0451 7.60107 43.445 7.49951 43.8936 7.49951C44.3929 7.49951 44.8013 7.60319 45.1187 7.81055C45.4403 8.0179 45.6667 8.30778 45.7979 8.68018C46.3311 7.89307 47.0251 7.49951 47.8799 7.49951C48.5485 7.49951 49.0627 7.68571 49.4224 8.05811C49.7821 8.42627 49.9619 8.99544 49.9619 9.76562V14.3931H48.8257V10.1465C48.8257 9.68945 48.7876 9.36149 48.7114 9.1626C48.6395 8.95947 48.5062 8.79655 48.3115 8.67383C48.1169 8.55111 47.8883 8.48975 47.626 8.48975C47.152 8.48975 46.7585 8.64844 46.4453 8.96582C46.1322 9.27897 45.9756 9.78255 45.9756 10.4766V14.3931H44.833V10.0132C44.833 9.50537 44.7399 9.12451 44.5537 8.87061C44.3675 8.6167 44.0628 8.48975 43.6396 8.48975C43.318 8.48975 43.0197 8.57438 42.7446 8.74365C42.4738 8.91292 42.277 9.16048 42.1543 9.48633C42.0316 9.81217 41.9702 10.2819 41.9702 10.8955V14.3931H40.8276ZM51.6567 14.3931V7.65186H52.6787V8.59766C52.8903 8.26758 53.1717 8.00309 53.5229 7.8042C53.8742 7.60107 54.2741 7.49951 54.7227 7.49951C55.222 7.49951 55.6304 7.60319 55.9478 7.81055C56.2694 8.0179 56.4958 8.30778 56.627 8.68018C57.1602 7.89307 57.8542 7.49951 58.709 7.49951C59.3776 7.49951 59.8918 7.68571 60.2515 8.05811C60.6112 8.42627 60.791 8.99544 60.791 9.76562V14.3931H59.6548V10.1465C59.6548 9.68945 59.6167 9.36149 59.5405 9.1626C59.4686 8.95947 59.3353 8.79655 59.1406 8.67383C58.946 8.55111 58.7174 8.48975 58.4551 8.48975C57.9811 8.48975 57.5876 8.64844 57.2744 8.96582C56.9613 9.27897 56.8047 9.78255 56.8047 10.4766V14.3931H55.6621V10.0132C55.6621 9.50537 55.569 9.12451 55.3828 8.87061C55.1966 8.6167 54.8919 8.48975 54.4688 8.48975C54.1471 8.48975 53.8488 8.57438 53.5737 8.74365C53.3029 8.91292 53.1061 9.16048 52.9834 9.48633C52.8607 9.81217 52.7993 10.2819 52.7993 10.8955V14.3931H51.6567ZM66.9038 14.3931V13.4028C66.3791 14.1646 65.666 14.5454 64.7646 14.5454C64.3669 14.5454 63.9945 14.4692 63.6475 14.3169C63.3047 14.1646 63.0487 13.9741 62.8794 13.7456C62.7144 13.5129 62.598 13.2293 62.5303 12.895C62.4837 12.6707 62.4604 12.3153 62.4604 11.8286V7.65186H63.603V11.3906C63.603 11.9873 63.6263 12.3893 63.6729 12.5967C63.7448 12.8971 63.8971 13.1341 64.1299 13.3076C64.3626 13.4769 64.6504 13.5615 64.9932 13.5615C65.3359 13.5615 65.6576 13.4748 65.958 13.3013C66.2585 13.1235 66.4701 12.8844 66.5928 12.584C66.7197 12.2793 66.7832 11.8392 66.7832 11.2637V7.65186H67.9258V14.3931H66.9038ZM69.7222 14.3931V7.65186H70.7505V8.61035C71.2456 7.86979 71.9608 7.49951 72.896 7.49951C73.3022 7.49951 73.6746 7.57357 74.0132 7.72168C74.356 7.86556 74.612 8.05599 74.7812 8.29297C74.9505 8.52995 75.069 8.81136 75.1367 9.13721C75.179 9.3488 75.2002 9.71908 75.2002 10.248V14.3931H74.0576V10.2925C74.0576 9.82699 74.0132 9.47998 73.9243 9.25146C73.8354 9.01872 73.6768 8.83464 73.4482 8.69922C73.224 8.55957 72.9595 8.48975 72.6548 8.48975C72.1681 8.48975 71.7471 8.64421 71.3916 8.95312C71.0404 9.26204 70.8647 9.84814 70.8647 10.7114V14.3931H69.7222ZM76.9648 6.40137V5.0874H78.1074V6.40137H76.9648ZM76.9648 14.3931V7.65186H78.1074V14.3931H76.9648ZM82.3477 13.3711L82.5127 14.3804C82.1911 14.4481 81.9033 14.4819 81.6494 14.4819C81.2347 14.4819 80.9131 14.4163 80.6846 14.2852C80.4561 14.154 80.2952 13.9826 80.2021 13.771C80.109 13.5552 80.0625 13.1045 80.0625 12.4189V8.54053H79.2246V7.65186H80.0625V5.98242L81.1987 5.29688V7.65186H82.3477V8.54053H81.1987V12.4824C81.1987 12.8083 81.2178 13.0177 81.2559 13.1108C81.2982 13.2039 81.3638 13.278 81.4526 13.333C81.5457 13.388 81.6769 13.4155 81.8462 13.4155C81.9731 13.4155 82.1403 13.4007 82.3477 13.3711ZM83.4204 16.9893L83.2935 15.9165C83.5431 15.9842 83.7611 16.0181 83.9473 16.0181C84.2012 16.0181 84.4043 15.9757 84.5566 15.8911C84.709 15.8065 84.8338 15.688 84.9312 15.5356C85.0031 15.4214 85.1195 15.1379 85.2803 14.6851C85.3014 14.6216 85.3353 14.5285 85.3818 14.4058L82.8237 7.65186H84.0552L85.458 11.5557C85.64 12.0508 85.8029 12.5713 85.9468 13.1172C86.078 12.5924 86.2345 12.0804 86.4165 11.5811L87.8574 7.65186H89L86.4355 14.5073C86.1605 15.2479 85.9468 15.7578 85.7944 16.0371C85.5913 16.4137 85.3586 16.6888 85.0962 16.8623C84.8338 17.04 84.5207 17.1289 84.1567 17.1289C83.9367 17.1289 83.6912 17.0824 83.4204 16.9893ZM100.375 11.1304L101.606 11.4414C101.348 12.4528 100.883 13.2251 100.21 13.7583C99.5413 14.2873 98.7225 14.5518 97.7534 14.5518C96.7505 14.5518 95.9338 14.3486 95.3032 13.9424C94.6769 13.5319 94.1987 12.9395 93.8687 12.165C93.5428 11.3906 93.3799 10.5591 93.3799 9.67041C93.3799 8.70133 93.564 7.8571 93.9321 7.1377C94.3045 6.41406 94.8314 5.86605 95.5127 5.49365C96.1982 5.11702 96.9515 4.92871 97.7725 4.92871C98.7035 4.92871 99.4863 5.16569 100.121 5.63965C100.756 6.11361 101.198 6.78011 101.448 7.63916L100.235 7.9248C100.02 7.24772 99.7064 6.75472 99.2959 6.4458C98.8854 6.13688 98.3691 5.98242 97.7471 5.98242C97.0319 5.98242 96.4331 6.15381 95.9507 6.49658C95.4725 6.83936 95.1361 7.30062 94.9414 7.88037C94.7467 8.45589 94.6494 9.05046 94.6494 9.66406C94.6494 10.4554 94.7637 11.1473 94.9922 11.7397C95.2249 12.328 95.5846 12.7681 96.0713 13.0601C96.5579 13.3521 97.0848 13.498 97.6519 13.498C98.3416 13.498 98.9256 13.2992 99.4038 12.9014C99.882 12.5036 100.206 11.9132 100.375 11.1304ZM102.559 11.0225C102.559 9.77409 102.906 8.84945 103.6 8.24854C104.179 7.74919 104.886 7.49951 105.72 7.49951C106.646 7.49951 107.404 7.8042 107.992 8.41357C108.58 9.01872 108.875 9.85661 108.875 10.9272C108.875 11.7948 108.743 12.4782 108.481 12.9775C108.223 13.4727 107.844 13.8577 107.345 14.1328C106.85 14.4079 106.308 14.5454 105.72 14.5454C104.776 14.5454 104.012 14.2428 103.428 13.6377C102.848 13.0326 102.559 12.1608 102.559 11.0225ZM103.733 11.0225C103.733 11.8857 103.921 12.5332 104.298 12.9648C104.674 13.3923 105.148 13.606 105.72 13.606C106.287 13.606 106.759 13.3901 107.135 12.9585C107.512 12.5269 107.7 11.8688 107.7 10.9844C107.7 10.1507 107.51 9.52018 107.129 9.09277C106.752 8.66113 106.283 8.44531 105.72 8.44531C105.148 8.44531 104.674 8.65902 104.298 9.08643C103.921 9.51383 103.733 10.1592 103.733 11.0225ZM109.795 11.0225C109.795 9.77409 110.142 8.84945 110.836 8.24854C111.416 7.74919 112.122 7.49951 112.956 7.49951C113.883 7.49951 114.64 7.8042 115.229 8.41357C115.817 9.01872 116.111 9.85661 116.111 10.9272C116.111 11.7948 115.98 12.4782 115.717 12.9775C115.459 13.4727 115.08 13.8577 114.581 14.1328C114.086 14.4079 113.544 14.5454 112.956 14.5454C112.012 14.5454 111.249 14.2428 110.665 13.6377C110.085 13.0326 109.795 12.1608 109.795 11.0225ZM110.969 11.0225C110.969 11.8857 111.158 12.5332 111.534 12.9648C111.911 13.3923 112.385 13.606 112.956 13.606C113.523 13.606 113.995 13.3901 114.372 12.9585C114.748 12.5269 114.937 11.8688 114.937 10.9844C114.937 10.1507 114.746 9.52018 114.365 9.09277C113.989 8.66113 113.519 8.44531 112.956 8.44531C112.385 8.44531 111.911 8.65902 111.534 9.08643C111.158 9.51383 110.969 10.1592 110.969 11.0225ZM117.444 14.3931V7.65186H118.472V8.67383C118.735 8.19564 118.976 7.88037 119.196 7.72803C119.42 7.57568 119.666 7.49951 119.932 7.49951C120.317 7.49951 120.709 7.62223 121.106 7.86768L120.713 8.92773C120.434 8.7627 120.154 8.68018 119.875 8.68018C119.625 8.68018 119.401 8.75635 119.202 8.90869C119.003 9.0568 118.861 9.26416 118.777 9.53076C118.65 9.93701 118.586 10.3813 118.586 10.8638V14.3931H117.444ZM126.159 14.3931V13.5425C125.732 14.2111 125.103 14.5454 124.274 14.5454C123.736 14.5454 123.241 14.3973 122.789 14.1011C122.34 13.8049 121.991 13.3923 121.741 12.8633C121.496 12.3301 121.373 11.7186 121.373 11.0288C121.373 10.356 121.485 9.74658 121.709 9.20068C121.934 8.65055 122.27 8.22949 122.719 7.9375C123.167 7.64551 123.669 7.49951 124.223 7.49951C124.629 7.49951 124.991 7.58626 125.309 7.75977C125.626 7.92904 125.884 8.1512 126.083 8.42627V5.0874H127.219V14.3931H126.159ZM122.547 11.0288C122.547 11.8921 122.729 12.5374 123.093 12.9648C123.457 13.3923 123.887 13.606 124.382 13.606C124.881 13.606 125.304 13.4028 125.651 12.9966C126.003 12.5861 126.178 11.9619 126.178 11.124C126.178 10.2015 126 9.52441 125.645 9.09277C125.29 8.66113 124.852 8.44531 124.331 8.44531C123.823 8.44531 123.398 8.65267 123.055 9.06738C122.717 9.4821 122.547 10.1359 122.547 11.0288ZM129.028 6.40137V5.0874H130.171V6.40137H129.028ZM129.028 14.3931V7.65186H130.171V14.3931H129.028ZM131.917 14.3931V7.65186H132.945V8.61035C133.44 7.86979 134.155 7.49951 135.09 7.49951C135.497 7.49951 135.869 7.57357 136.208 7.72168C136.55 7.86556 136.806 8.05599 136.976 8.29297C137.145 8.52995 137.263 8.81136 137.331 9.13721C137.373 9.3488 137.395 9.71908 137.395 10.248V14.3931H136.252V10.2925C136.252 9.82699 136.208 9.47998 136.119 9.25146C136.03 9.01872 135.871 8.83464 135.643 8.69922C135.418 8.55957 135.154 8.48975 134.849 8.48975C134.362 8.48975 133.941 8.64421 133.586 8.95312C133.235 9.26204 133.059 9.84814 133.059 10.7114V14.3931H131.917ZM143.552 13.5615C143.129 13.9212 142.72 14.1751 142.327 14.3232C141.937 14.4714 141.518 14.5454 141.07 14.5454C140.329 14.5454 139.76 14.3656 139.362 14.0059C138.965 13.6419 138.766 13.1785 138.766 12.6157C138.766 12.2856 138.84 11.9852 138.988 11.7144C139.14 11.4393 139.337 11.2192 139.578 11.0542C139.824 10.8892 140.099 10.7643 140.403 10.6797C140.628 10.6204 140.966 10.5633 141.419 10.5083C142.341 10.3983 143.021 10.2671 143.457 10.1147C143.461 9.95817 143.463 9.85872 143.463 9.81641C143.463 9.35091 143.355 9.02295 143.139 8.83252C142.847 8.57438 142.413 8.44531 141.838 8.44531C141.3 8.44531 140.903 8.54053 140.645 8.73096C140.391 8.91715 140.202 9.24935 140.08 9.72754L138.962 9.5752C139.064 9.09701 139.231 8.71191 139.464 8.41992C139.697 8.1237 140.033 7.8973 140.473 7.74072C140.913 7.57992 141.423 7.49951 142.003 7.49951C142.578 7.49951 143.046 7.56722 143.406 7.70264C143.765 7.83805 144.03 8.00944 144.199 8.2168C144.368 8.41992 144.487 8.67806 144.555 8.99121C144.593 9.18587 144.612 9.53711 144.612 10.0449V11.5684C144.612 12.6305 144.635 13.3034 144.682 13.5869C144.732 13.8662 144.83 14.1349 144.974 14.3931H143.78C143.662 14.1561 143.586 13.8789 143.552 13.5615ZM143.457 11.0098C143.042 11.179 142.42 11.3229 141.59 11.4414C141.121 11.5091 140.788 11.5853 140.594 11.6699C140.399 11.7546 140.249 11.8794 140.143 12.0444C140.037 12.2052 139.984 12.3851 139.984 12.584C139.984 12.8887 140.099 13.1426 140.327 13.3457C140.56 13.5488 140.898 13.6504 141.343 13.6504C141.783 13.6504 142.174 13.5552 142.517 13.3647C142.86 13.1701 143.112 12.9056 143.272 12.5713C143.395 12.3132 143.457 11.9323 143.457 11.4287V11.0098ZM148.884 13.3711L149.049 14.3804C148.727 14.4481 148.439 14.4819 148.186 14.4819C147.771 14.4819 147.449 14.4163 147.221 14.2852C146.992 14.154 146.831 13.9826 146.738 13.771C146.645 13.5552 146.599 13.1045 146.599 12.4189V8.54053H145.761V7.65186H146.599V5.98242L147.735 5.29688V7.65186H148.884V8.54053H147.735V12.4824C147.735 12.8083 147.754 13.0177 147.792 13.1108C147.834 13.2039 147.9 13.278 147.989 13.333C148.082 13.388 148.213 13.4155 148.382 13.4155C148.509 13.4155 148.676 13.4007 148.884 13.3711ZM150.014 6.40137V5.0874H151.156V6.40137H150.014ZM150.014 14.3931V7.65186H151.156V14.3931H150.014ZM152.477 11.0225C152.477 9.77409 152.824 8.84945 153.518 8.24854C154.097 7.74919 154.804 7.49951 155.638 7.49951C156.564 7.49951 157.322 7.8042 157.91 8.41357C158.498 9.01872 158.792 9.85661 158.792 10.9272C158.792 11.7948 158.661 12.4782 158.399 12.9775C158.141 13.4727 157.762 13.8577 157.263 14.1328C156.768 14.4079 156.226 14.5454 155.638 14.5454C154.694 14.5454 153.93 14.2428 153.346 13.6377C152.766 13.0326 152.477 12.1608 152.477 11.0225ZM153.651 11.0225C153.651 11.8857 153.839 12.5332 154.216 12.9648C154.592 13.3923 155.066 13.606 155.638 13.606C156.205 13.606 156.677 13.3901 157.053 12.9585C157.43 12.5269 157.618 11.8688 157.618 10.9844C157.618 10.1507 157.428 9.52018 157.047 9.09277C156.67 8.66113 156.201 8.44531 155.638 8.44531C155.066 8.44531 154.592 8.65902 154.216 9.08643C153.839 9.51383 153.651 10.1592 153.651 11.0225ZM160.138 14.3931V7.65186H161.167V8.61035C161.662 7.86979 162.377 7.49951 163.312 7.49951C163.718 7.49951 164.091 7.57357 164.429 7.72168C164.772 7.86556 165.028 8.05599 165.197 8.29297C165.367 8.52995 165.485 8.81136 165.553 9.13721C165.595 9.3488 165.616 9.71908 165.616 10.248V14.3931H164.474V10.2925C164.474 9.82699 164.429 9.47998 164.34 9.25146C164.251 9.01872 164.093 8.83464 163.864 8.69922C163.64 8.55957 163.375 8.48975 163.071 8.48975C162.584 8.48975 162.163 8.64421 161.808 8.95312C161.456 9.26204 161.281 9.84814 161.281 10.7114V14.3931H160.138Z" fill="white"/>
</g>
</g>
<defs>
<filter id="filter0_d_3229_1751" x="21.9873" y="2.92871" width="145.629" height="16.2002" filterUnits="userSpaceOnUse" color-interpolation-filters="sRGB">
<feFlood flood-opacity="0" result="BackgroundImageFix"/>
<feColorMatrix in="SourceAlpha" type="matrix" values="0 0 0 0 0 0 0 0 0 0 0 0 0 0 0 0 0 0 127 0" result="hardAlpha"/>
<feOffset/>
<feGaussianBlur stdDeviation="1"/>
<feComposite in2="hardAlpha" operator="out"/>
<feColorMatrix type="matrix" values="0 0 0 0 0 0 0 0 0 0 0 0 0 0 0 0 0 0 0.5 0"/>
<feBlend mode="normal" in2="BackgroundImageFix" result="effect1_dropShadow_3229_1751"/>
<feBlend mode="normal" in="SourceGraphic" in2="effect1_dropShadow_3229_1751" result="shape"/>
</filter>
<clipPath id="clip0_3229_1751">
<rect width="151.11" height="16" fill="white" transform="translate(23.3398 2.39307)"/>
</clipPath>
</defs>
</svg>
