<svg width="99" height="20" viewBox="0 0 99 20" fill="none" xmlns="http://www.w3.org/2000/svg">
<rect x="7" y="4" width="12" height="12" rx="6" fill="white"/>
<rect x="0.5" y="0.5" width="94" height="19" rx="9.5" fill="#373943" stroke="black"/>
<rect x="7" y="4" width="12" height="12" rx="6" fill="url(#paint0_linear_3350_8545)"/>
<path d="M30.3486 10.8628L31.5327 11.1619C31.2845 12.1344 30.8369 12.877 30.1899 13.3896C29.547 13.8983 28.7597 14.1526 27.8279 14.1526C26.8635 14.1526 26.0782 13.9573 25.4719 13.5667C24.8697 13.172 24.4099 12.6023 24.0925 11.8577C23.7792 11.113 23.6226 10.3135 23.6226 9.45898C23.6226 8.52718 23.7996 7.71541 24.1536 7.02368C24.5116 6.32788 25.0182 5.80094 25.6733 5.44287C26.3325 5.08073 27.0568 4.89966 27.8462 4.89966C28.7414 4.89966 29.4941 5.12752 30.1045 5.58325C30.7148 6.03898 31.1401 6.67985 31.3801 7.50586L30.2144 7.78052C30.0068 7.12948 29.7057 6.65544 29.311 6.3584C28.9163 6.06136 28.4199 5.91284 27.8218 5.91284C27.1341 5.91284 26.5583 6.07764 26.0945 6.40723C25.6347 6.73682 25.3112 7.18034 25.124 7.73779C24.9368 8.29118 24.8433 8.86287 24.8433 9.45288C24.8433 10.2138 24.9531 10.8791 25.1729 11.4487C25.3966 12.0143 25.7425 12.4375 26.2104 12.7183C26.6784 12.999 27.185 13.1394 27.7302 13.1394C28.3935 13.1394 28.955 12.9482 29.4148 12.5657C29.8746 12.1832 30.1859 11.6156 30.3486 10.8628ZM32.4482 10.759C32.4482 9.55868 32.7819 8.6696 33.4492 8.0918C34.0067 7.61165 34.6862 7.37158 35.4878 7.37158C36.3789 7.37158 37.1073 7.66455 37.6729 8.25049C38.2384 8.83236 38.5212 9.63802 38.5212 10.6675C38.5212 11.5016 38.3951 12.1588 38.1428 12.6389C37.8946 13.115 37.5304 13.4853 37.0503 13.7498C36.5742 14.0142 36.0534 14.1465 35.4878 14.1465C34.5804 14.1465 33.8459 13.8556 33.2844 13.2737C32.727 12.6918 32.4482 11.8536 32.4482 10.759ZM33.5774 10.759C33.5774 11.5891 33.7585 12.2117 34.1206 12.6267C34.4827 13.0377 34.9385 13.2432 35.4878 13.2432C36.033 13.2432 36.4867 13.0356 36.8489 12.6206C37.211 12.2056 37.3921 11.5728 37.3921 10.7224C37.3921 9.92082 37.209 9.31453 36.8428 8.90356C36.4806 8.48853 36.029 8.28101 35.4878 8.28101C34.9385 8.28101 34.4827 8.48649 34.1206 8.89746C33.7585 9.30843 33.5774 9.92896 33.5774 10.759ZM39.8152 14V7.51807H40.804V8.4397C41.28 7.72762 41.9677 7.37158 42.8669 7.37158C43.2576 7.37158 43.6156 7.44279 43.9412 7.58521C44.2708 7.72355 44.5169 7.90666 44.6797 8.13452C44.8424 8.36239 44.9564 8.63298 45.0215 8.94629C45.0622 9.14974 45.0825 9.50578 45.0825 10.0144V14H43.9839V10.0571C43.9839 9.60954 43.9412 9.27588 43.8557 9.05615C43.7703 8.83236 43.6177 8.65535 43.3979 8.52515C43.1823 8.39087 42.928 8.32373 42.635 8.32373C42.1671 8.32373 41.7622 8.47225 41.4204 8.76929C41.0827 9.06632 40.9138 9.62988 40.9138 10.46V14H39.8152ZM49.1719 13.0173L49.3306 13.9878C49.0213 14.0529 48.7446 14.0854 48.5005 14.0854C48.1017 14.0854 47.7925 14.0224 47.5728 13.8962C47.353 13.7701 47.1984 13.6053 47.1089 13.4019C47.0194 13.1943 46.9746 12.761 46.9746 12.1018V8.37256H46.1689V7.51807H46.9746V5.91284L48.0671 5.25366V7.51807H49.1719V8.37256H48.0671V12.1628C48.0671 12.4762 48.0854 12.6776 48.1221 12.7671C48.1628 12.8566 48.2258 12.9278 48.3113 12.9807C48.4008 13.0336 48.5269 13.0601 48.6897 13.0601C48.8118 13.0601 48.9725 13.0458 49.1719 13.0173ZM50.24 14V7.51807H51.2288V8.50073C51.481 8.04093 51.713 7.73779 51.9246 7.59131C52.1402 7.44482 52.3762 7.37158 52.6326 7.37158C53.0028 7.37158 53.3792 7.48958 53.7617 7.72559L53.3833 8.74487C53.1147 8.58618 52.8462 8.50684 52.5776 8.50684C52.3376 8.50684 52.1219 8.58008 51.9307 8.72656C51.7394 8.86898 51.6031 9.06836 51.5217 9.32471C51.3997 9.71533 51.3386 10.1426 51.3386 10.6064V14H50.24ZM54.4209 6.31567V5.05225H55.5195V6.31567H54.4209ZM54.4209 14V7.51807H55.5195V14H54.4209ZM58.2112 14H57.1919V5.05225H58.2905V8.24438C58.7544 7.66252 59.3464 7.37158 60.0667 7.37158C60.4654 7.37158 60.8418 7.45296 61.1958 7.61572C61.5539 7.77441 61.8468 8.00024 62.0747 8.29321C62.3066 8.58211 62.4877 8.93205 62.6179 9.34302C62.7481 9.75399 62.8132 10.1934 62.8132 10.6614C62.8132 11.7722 62.5386 12.6308 61.9893 13.2371C61.4399 13.8433 60.7808 14.1465 60.0117 14.1465C59.2467 14.1465 58.6466 13.8271 58.2112 13.1882V14ZM58.199 10.7102C58.199 11.4874 58.3048 12.0489 58.5164 12.3948C58.8622 12.9604 59.3302 13.2432 59.9202 13.2432C60.4003 13.2432 60.8153 13.0356 61.1653 12.6206C61.5152 12.2015 61.6902 11.5789 61.6902 10.7529C61.6902 9.90658 61.5213 9.28198 61.1836 8.87915C60.8499 8.47632 60.4451 8.2749 59.969 8.2749C59.4889 8.2749 59.0738 8.48446 58.7239 8.90356C58.3739 9.3186 58.199 9.92082 58.199 10.7102ZM68.4041 14V13.0479C67.8995 13.7803 67.2139 14.1465 66.3472 14.1465C65.9647 14.1465 65.6066 14.0732 65.2729 13.9268C64.9434 13.7803 64.6972 13.5972 64.5344 13.3774C64.3757 13.1536 64.2638 12.881 64.1987 12.5596C64.154 12.3439 64.1316 12.0021 64.1316 11.5342V7.51807H65.2302V11.113C65.2302 11.6868 65.2526 12.0733 65.2974 12.2727C65.3665 12.5616 65.513 12.7895 65.7368 12.9563C65.9606 13.1191 66.2373 13.2004 66.5669 13.2004C66.8965 13.2004 67.2057 13.117 67.4946 12.9502C67.7835 12.7793 67.987 12.5494 68.105 12.2605C68.2271 11.9675 68.2881 11.5444 68.2881 10.991V7.51807H69.3867V14H68.4041ZM73.5127 13.0173L73.6714 13.9878C73.3621 14.0529 73.0854 14.0854 72.8413 14.0854C72.4425 14.0854 72.1333 14.0224 71.9136 13.8962C71.6938 13.7701 71.5392 13.6053 71.4497 13.4019C71.3602 13.1943 71.3154 12.761 71.3154 12.1018V8.37256H70.5098V7.51807H71.3154V5.91284L72.408 5.25366V7.51807H73.5127V8.37256H72.408V12.1628C72.408 12.4762 72.4263 12.6776 72.4629 12.7671C72.5036 12.8566 72.5667 12.9278 72.6521 12.9807C72.7416 13.0336 72.8678 13.0601 73.0305 13.0601C73.1526 13.0601 73.3133 13.0458 73.5127 13.0173ZM74.1841 10.759C74.1841 9.55868 74.5177 8.6696 75.1851 8.0918C75.7425 7.61165 76.422 7.37158 77.2236 7.37158C78.1147 7.37158 78.8431 7.66455 79.4087 8.25049C79.9743 8.83236 80.2571 9.63802 80.2571 10.6675C80.2571 11.5016 80.1309 12.1588 79.8787 12.6389C79.6305 13.115 79.2663 13.4853 78.7861 13.7498C78.3101 14.0142 77.7892 14.1465 77.2236 14.1465C76.3162 14.1465 75.5818 13.8556 75.0203 13.2737C74.4628 12.6918 74.1841 11.8536 74.1841 10.759ZM75.3132 10.759C75.3132 11.5891 75.4943 12.2117 75.8564 12.6267C76.2186 13.0377 76.6743 13.2432 77.2236 13.2432C77.7689 13.2432 78.2226 13.0356 78.5847 12.6206C78.9469 12.2056 79.1279 11.5728 79.1279 10.7224C79.1279 9.92082 78.9448 9.31453 78.5786 8.90356C78.2165 8.48853 77.7648 8.28101 77.2236 8.28101C76.6743 8.28101 76.2186 8.48649 75.8564 8.89746C75.4943 9.30843 75.3132 9.92896 75.3132 10.759ZM81.5388 14V7.51807H82.5276V8.50073C82.7799 8.04093 83.0118 7.73779 83.2234 7.59131C83.439 7.44482 83.675 7.37158 83.9314 7.37158C84.3017 7.37158 84.6781 7.48958 85.0605 7.72559L84.6821 8.74487C84.4136 8.58618 84.145 8.50684 83.8765 8.50684C83.6364 8.50684 83.4207 8.58008 83.2295 8.72656C83.0382 8.86898 82.9019 9.06836 82.8206 9.32471C82.6985 9.71533 82.6375 10.1426 82.6375 10.6064V14H81.5388Z" fill="white"/>
<defs>
<linearGradient id="paint0_linear_3350_8545" x1="7" y1="10" x2="19" y2="10" gradientUnits="userSpaceOnUse">
<stop stop-color="#FFC677"/>
<stop offset="1" stop-color="#FFAD85"/>
</linearGradient>
</defs>
</svg>
