<svg width="64" height="21" viewBox="0 0 64 21" fill="none" xmlns="http://www.w3.org/2000/svg">
<rect x="1.39014" y="0.543823" width="61.45" height="19" rx="9.5" stroke="white"/>
<rect x="7.89014" y="4.04382" width="12" height="12" rx="6" fill="white"/>
<g clip-path="url(#clip0_3229_1078)">
<g filter="url(#filter0_d_3229_1078)">
<path d="M24.7899 13.0438V5.19217H30.0868V6.11873H25.8289V8.55028H29.5138V9.47684H25.8289V13.0438H24.7899ZM31.1259 9.21976C31.1259 7.9165 31.4758 6.89711 32.1756 6.16158C32.8754 5.42247 33.7788 5.05292 34.8857 5.05292C35.6105 5.05292 36.2639 5.22609 36.8459 5.57243C37.4279 5.91878 37.8707 6.40259 38.1741 7.02386C38.4812 7.64157 38.6348 8.34319 38.6348 9.12871C38.6348 9.92494 38.4741 10.6373 38.1527 11.2657C37.8314 11.8941 37.3761 12.3708 36.787 12.6957C36.1978 13.017 35.5623 13.1777 34.8803 13.1777C34.1412 13.1777 33.4807 12.9992 32.8987 12.6421C32.3167 12.2851 31.8757 11.7977 31.5758 11.18C31.2758 10.5623 31.1259 9.90887 31.1259 9.21976ZM32.197 9.23582C32.197 10.182 32.4505 10.9283 32.9576 11.4746C33.4682 12.0173 34.1073 12.2887 34.875 12.2887C35.6569 12.2887 36.2996 12.0137 36.8031 11.4639C37.3101 10.914 37.5636 10.1338 37.5636 9.12335C37.5636 8.48422 37.4547 7.92722 37.2369 7.45233C37.0226 6.97388 36.7066 6.60432 36.2889 6.34367C35.8747 6.07945 35.4088 5.94734 34.891 5.94734C34.1555 5.94734 33.5217 6.20085 32.9897 6.70787C32.4613 7.21132 32.197 8.05397 32.197 9.23582ZM39.6256 10.5212L40.6057 10.4355C40.6521 10.8283 40.7592 11.1514 40.927 11.4049C41.0984 11.6549 41.3627 11.8584 41.7197 12.0155C42.0768 12.169 42.4785 12.2458 42.9248 12.2458C43.3211 12.2458 43.671 12.1869 43.9745 12.0691C44.278 11.9512 44.503 11.7906 44.6494 11.587C44.7993 11.3799 44.8743 11.155 44.8743 10.9122C44.8743 10.6658 44.8029 10.4516 44.6601 10.2695C44.5172 10.0838 44.2816 9.92851 43.9531 9.80354C43.7424 9.72142 43.2765 9.59467 42.5552 9.42328C41.834 9.24832 41.3287 9.08408 41.0395 8.93054C40.6646 8.73416 40.3843 8.49136 40.1987 8.20215C40.0166 7.90936 39.9255 7.58266 39.9255 7.22203C39.9255 6.8257 40.038 6.45615 40.2629 6.11337C40.4879 5.76703 40.8164 5.50459 41.2484 5.32607C41.6804 5.14754 42.1607 5.05827 42.6891 5.05827C43.2711 5.05827 43.7835 5.15289 44.2262 5.34213C44.6726 5.5278 45.0153 5.80273 45.2546 6.16693C45.4938 6.53113 45.6223 6.94353 45.6402 7.40413L44.644 7.47911C44.5904 6.9828 44.4083 6.60789 44.0977 6.35439C43.7906 6.10088 43.3354 5.97412 42.732 5.97412C42.1035 5.97412 41.6447 6.09016 41.3555 6.32225C41.0699 6.55077 40.927 6.82748 40.927 7.1524C40.927 7.43448 41.0288 7.66656 41.2323 7.84866C41.4323 8.03076 41.9536 8.21822 42.7962 8.41103C43.6425 8.60027 44.2227 8.7663 44.5369 8.90912C44.9939 9.11978 45.3313 9.38757 45.5491 9.71249C45.7669 10.0338 45.8758 10.4052 45.8758 10.8265C45.8758 11.2443 45.7562 11.6388 45.517 12.0101C45.2778 12.3779 44.9332 12.6653 44.4833 12.8724C44.037 13.076 43.5336 13.1777 42.973 13.1777C42.2624 13.1777 41.6662 13.0742 41.1841 12.8671C40.7057 12.66 40.329 12.3493 40.054 11.9352C39.7827 11.5174 39.6399 11.0461 39.6256 10.5212ZM46.9417 10.5212L47.9218 10.4355C47.9682 10.8283 48.0753 11.1514 48.2431 11.4049C48.4145 11.6549 48.6787 11.8584 49.0358 12.0155C49.3928 12.169 49.7945 12.2458 50.2408 12.2458C50.6372 12.2458 50.9871 12.1869 51.2906 12.0691C51.5941 11.9512 51.819 11.7906 51.9654 11.587C52.1154 11.3799 52.1904 11.155 52.1904 10.9122C52.1904 10.6658 52.119 10.4516 51.9761 10.2695C51.8333 10.0838 51.5977 9.92851 51.2692 9.80354C51.0585 9.72142 50.5925 9.59467 49.8713 9.42328C49.15 9.24832 48.6448 9.08408 48.3556 8.93054C47.9807 8.73416 47.7004 8.49136 47.5147 8.20215C47.3326 7.90936 47.2416 7.58266 47.2416 7.22203C47.2416 6.8257 47.354 6.45615 47.579 6.11337C47.8039 5.76703 48.1324 5.50459 48.5645 5.32607C48.9965 5.14754 49.4767 5.05827 50.0052 5.05827C50.5872 5.05827 51.0996 5.15289 51.5423 5.34213C51.9886 5.5278 52.3314 5.80273 52.5706 6.16693C52.8099 6.53113 52.9384 6.94353 52.9563 7.40413L51.9601 7.47911C51.9065 6.9828 51.7244 6.60789 51.4138 6.35439C51.1067 6.10088 50.6515 5.97412 50.048 5.97412C49.4196 5.97412 48.9608 6.09016 48.6716 6.32225C48.3859 6.55077 48.2431 6.82748 48.2431 7.1524C48.2431 7.43448 48.3449 7.66656 48.5484 7.84866C48.7484 8.03076 49.2697 8.21822 50.1123 8.41103C50.9585 8.60027 51.5387 8.7663 51.853 8.90912C52.31 9.11978 52.6474 9.38757 52.8652 9.71249C53.083 10.0338 53.1919 10.4052 53.1919 10.8265C53.1919 11.2443 53.0723 11.6388 52.8331 12.0101C52.5938 12.3779 52.2493 12.6653 51.7994 12.8724C51.3531 13.076 50.8496 13.1777 50.289 13.1777C49.5785 13.1777 48.9822 13.0742 48.5002 12.8671C48.0217 12.66 47.6451 12.3493 47.3701 11.9352C47.0988 11.5174 46.9559 11.0461 46.9417 10.5212Z" fill="white"/>
</g>
</g>
<defs>
<filter id="filter0_d_3229_1078" x="22.79" y="3.05292" width="32.4019" height="12.1248" filterUnits="userSpaceOnUse" color-interpolation-filters="sRGB">
<feFlood flood-opacity="0" result="BackgroundImageFix"/>
<feColorMatrix in="SourceAlpha" type="matrix" values="0 0 0 0 0 0 0 0 0 0 0 0 0 0 0 0 0 0 127 0" result="hardAlpha"/>
<feOffset/>
<feGaussianBlur stdDeviation="1"/>
<feComposite in2="hardAlpha" operator="out"/>
<feColorMatrix type="matrix" values="0 0 0 0 0 0 0 0 0 0 0 0 0 0 0 0 0 0 0.5 0"/>
<feBlend mode="normal" in2="BackgroundImageFix" result="effect1_dropShadow_3229_1078"/>
<feBlend mode="normal" in="SourceGraphic" in2="effect1_dropShadow_3229_1078" result="shape"/>
</filter>
<clipPath id="clip0_3229_1078">
<rect width="32.45" height="16" fill="white" transform="translate(23.8901 2.04382)"/>
</clipPath>
</defs>
</svg>
