<svg width="103" height="21" viewBox="0 0 103 21" fill="none" xmlns="http://www.w3.org/2000/svg">
<rect x="1.47998" y="1.27588" width="100.34" height="19" rx="9.5" stroke="white"/>
<rect x="7.97998" y="4.77588" width="12" height="12" rx="6" fill="white"/>
<g clip-path="url(#clip0_3229_2099)">
<g filter="url(#filter0_d_3229_2099)">
<path d="M29.1281 11.2686V10.2194L32.916 10.2133V13.5315C32.3345 13.9951 31.7347 14.3448 31.1166 14.5807C30.4985 14.8125 29.8642 14.9284 29.2135 14.9284C28.3352 14.9284 27.5361 14.7413 26.8163 14.3672C26.1006 13.989 25.5598 13.4441 25.1938 12.7325C24.8278 12.0208 24.6448 11.2259 24.6448 10.3475C24.6448 9.47727 24.8258 8.66601 25.1877 7.91372C25.5537 7.15735 26.0783 6.59618 26.7614 6.2302C27.4446 5.86422 28.2315 5.68122 29.122 5.68122C29.7686 5.68122 30.3521 5.78695 30.8726 5.99841C31.3972 6.2058 31.8079 6.49655 32.1048 6.87067C32.4016 7.24478 32.6273 7.73276 32.7818 8.33459L31.7144 8.62738C31.5802 8.17194 31.4135 7.81409 31.2142 7.55383C31.015 7.29358 30.7303 7.08619 30.3603 6.93166C29.9902 6.77307 29.5795 6.69378 29.1281 6.69378C28.5873 6.69378 28.1196 6.77714 27.7252 6.94386C27.3307 7.10652 27.0115 7.32204 26.7675 7.59043C26.5276 7.85882 26.3406 8.15364 26.2064 8.47489C25.9786 9.02793 25.8648 9.62773 25.8648 10.2743C25.8648 11.0713 26.001 11.7382 26.2735 12.275C26.55 12.8118 26.9505 13.2103 27.4751 13.4705C27.9997 13.7308 28.5568 13.8609 29.1464 13.8609C29.6588 13.8609 30.159 13.7633 30.647 13.5681C31.1349 13.3689 31.505 13.1574 31.7571 12.9338V11.2686H29.1281ZM34.1177 11.5369C34.1177 10.3373 34.4511 9.44881 35.118 8.87137C35.6751 8.39153 36.3542 8.1516 37.1553 8.1516C38.0459 8.1516 38.7738 8.44439 39.339 9.02996C39.9043 9.61147 40.1869 10.4166 40.1869 11.4454C40.1869 12.2791 40.0608 12.9358 39.8087 13.4156C39.5606 13.8914 39.1967 14.2615 38.7169 14.5258C38.2411 14.7901 37.7206 14.9223 37.1553 14.9223C36.2485 14.9223 35.5145 14.6315 34.9533 14.05C34.3962 13.4685 34.1177 12.6308 34.1177 11.5369ZM35.2461 11.5369C35.2461 12.3665 35.4271 12.9887 35.789 13.4034C36.1509 13.8142 36.6064 14.0195 37.1553 14.0195C37.7002 14.0195 38.1537 13.8121 38.5156 13.3973C38.8775 12.9826 39.0584 12.3502 39.0584 11.5003C39.0584 10.6992 38.8755 10.0933 38.5095 9.68263C38.1476 9.26785 37.6962 9.06046 37.1553 9.06046C36.6064 9.06046 36.1509 9.26582 35.789 9.67653C35.4271 10.0872 35.2461 10.7074 35.2461 11.5369ZM43.2794 14.7759L40.8152 8.298H41.9741L43.3648 12.1774C43.5153 12.5963 43.6535 13.0314 43.7796 13.4827C43.8772 13.1412 44.0134 12.7304 44.1883 12.2506L45.6278 8.298H46.7563L44.3042 14.7759H43.2794ZM52.1606 12.6898L53.2951 12.8301C53.1162 13.4929 52.7848 14.0073 52.3009 14.3733C51.817 14.7393 51.1989 14.9223 50.4466 14.9223C49.4991 14.9223 48.7468 14.6315 48.1897 14.05C47.6367 13.4644 47.3601 12.6451 47.3601 11.5918C47.3601 10.502 47.6407 9.6562 48.2019 9.05436C48.7631 8.45252 49.491 8.1516 50.3856 8.1516C51.2517 8.1516 51.9593 8.44642 52.5083 9.03606C53.0573 9.6257 53.3317 10.4553 53.3317 11.5247C53.3317 11.5898 53.3297 11.6874 53.3256 11.8175H48.4947C48.5353 12.5292 48.7366 13.0741 49.0985 13.4522C49.4605 13.8304 49.9118 14.0195 50.4527 14.0195C50.8553 14.0195 51.1989 13.9138 51.4835 13.7023C51.7682 13.4909 51.9939 13.1534 52.1606 12.6898ZM48.5557 10.9148H52.1728C52.124 10.3699 51.9857 9.96118 51.758 9.68873C51.4083 9.26582 50.9549 9.05436 50.3978 9.05436C49.8935 9.05436 49.4686 9.22312 49.1229 9.56063C48.7814 9.89815 48.5923 10.3495 48.5557 10.9148ZM54.6676 14.7759V8.298H55.6557V9.28005C55.9078 8.82054 56.1396 8.51759 56.3511 8.37119C56.5666 8.2248 56.8025 8.1516 57.0587 8.1516C57.4287 8.1516 57.8049 8.26953 58.1871 8.50539L57.8089 9.52404C57.5405 9.36544 57.2721 9.28615 57.0038 9.28615C56.7638 9.28615 56.5483 9.35934 56.3572 9.50574C56.1661 9.64806 56.0298 9.84732 55.9485 10.1035C55.8265 10.4939 55.7655 10.9209 55.7655 11.3844V14.7759H54.6676ZM58.8398 14.7759V8.298H59.8279V9.21905C60.3037 8.50742 60.9909 8.1516 61.8896 8.1516C62.28 8.1516 62.6379 8.22277 62.9632 8.36509C63.2926 8.50335 63.5386 8.68634 63.7012 8.91407C63.8639 9.14179 63.9778 9.41221 64.0428 9.72533C64.0835 9.92865 64.1038 10.2845 64.1038 10.7928V14.7759H63.0059V10.8355C63.0059 10.3882 62.9632 10.0547 62.8778 9.83512C62.7924 9.61147 62.6399 9.43457 62.4203 9.30445C62.2048 9.17025 61.9506 9.10316 61.6578 9.10316C61.1902 9.10316 60.7856 9.25158 60.444 9.54844C60.1065 9.84529 59.9377 10.4085 59.9377 11.2381V14.7759H58.8398ZM70.0205 13.9768C69.6139 14.3225 69.2215 14.5665 68.8433 14.7088C68.4692 14.8511 68.0666 14.9223 67.6355 14.9223C66.9239 14.9223 66.377 14.7494 65.9947 14.4038C65.6125 14.0541 65.4213 13.6088 65.4213 13.068C65.4213 12.7508 65.4925 12.4621 65.6348 12.2018C65.7812 11.9375 65.9703 11.726 66.2021 11.5674C66.438 11.4088 66.7023 11.2889 66.9951 11.2076C67.2106 11.1506 67.5359 11.0957 67.971 11.0429C68.8575 10.9371 69.5102 10.8111 69.929 10.6647C69.9331 10.5142 69.9351 10.4187 69.9351 10.378C69.9351 9.93068 69.8314 9.61553 69.624 9.43254C69.3435 9.18449 68.9266 9.06046 68.3736 9.06046C67.8572 9.06046 67.4749 9.15195 67.2269 9.33495C66.9829 9.51387 66.8019 9.83309 66.684 10.2926L65.6104 10.1462C65.708 9.6867 65.8687 9.31665 66.0923 9.03606C66.316 8.75141 66.6393 8.53385 67.0622 8.38339C67.4851 8.22887 67.9751 8.1516 68.5322 8.1516C69.0852 8.1516 69.5346 8.21667 69.8802 8.34679C70.2259 8.47692 70.48 8.64161 70.6427 8.84087C70.8054 9.03606 70.9192 9.28411 70.9843 9.58503C71.0209 9.77209 71.0392 10.1096 71.0392 10.5976V12.0615C71.0392 13.0822 71.0615 13.7288 71.1063 14.0012C71.1551 14.2696 71.2486 14.5278 71.3869 14.7759H70.2401C70.1263 14.5482 70.0531 14.2818 70.0205 13.9768ZM69.929 11.5247C69.5305 11.6874 68.9327 11.8257 68.1357 11.9395C67.6843 12.0046 67.3651 12.0778 67.1781 12.1591C66.991 12.2404 66.8466 12.3604 66.745 12.519C66.6433 12.6735 66.5925 12.8463 66.5925 13.0375C66.5925 13.3302 66.7023 13.5742 66.9219 13.7694C67.1455 13.9646 67.4708 14.0622 67.8978 14.0622C68.3207 14.0622 68.6969 13.9707 69.0263 13.7877C69.3557 13.6007 69.5976 13.3465 69.7521 13.0253C69.8701 12.7772 69.929 12.4112 69.929 11.9273V11.5247ZM72.7471 14.7759V8.298H73.7352V9.21905C74.211 8.50742 74.8983 8.1516 75.7969 8.1516C76.1873 8.1516 76.5452 8.22277 76.8705 8.36509C77.1999 8.50335 77.4459 8.68634 77.6086 8.91407C77.7712 9.14179 77.8851 9.41221 77.9501 9.72533C77.9908 9.92865 78.0111 10.2845 78.0111 10.7928V14.7759H76.9132V10.8355C76.9132 10.3882 76.8705 10.0547 76.7851 9.83512C76.6997 9.61147 76.5472 9.43457 76.3276 9.30445C76.1121 9.17025 75.8579 9.10316 75.5652 9.10316C75.0975 9.10316 74.6929 9.25158 74.3513 9.54844C74.0138 9.84529 73.845 10.4085 73.845 11.2381V14.7759H72.7471ZM83.9278 12.4031L85.0075 12.5434C84.8896 13.2876 84.5866 13.8711 84.0986 14.294C83.6147 14.7128 83.019 14.9223 82.3114 14.9223C81.4249 14.9223 80.7113 14.6336 80.1704 14.0561C79.6337 13.4746 79.3653 12.643 79.3653 11.5613C79.3653 10.8619 79.4812 10.2499 79.7129 9.72533C79.9447 9.20075 80.2965 8.80834 80.7682 8.54808C81.244 8.28376 81.7604 8.1516 82.3175 8.1516C83.021 8.1516 83.5964 8.33053 84.0437 8.68838C84.491 9.04216 84.7777 9.5464 84.9038 10.2011L83.8363 10.3658C83.7347 9.93068 83.5537 9.60333 83.2935 9.38374C83.0373 9.16415 82.7262 9.05436 82.3602 9.05436C81.8072 9.05436 81.3578 9.25362 81.0122 9.65213C80.6665 10.0466 80.4937 10.6728 80.4937 11.5308C80.4937 12.4011 80.6604 13.0334 80.9939 13.4278C81.3273 13.8223 81.7624 14.0195 82.2992 14.0195C82.7303 14.0195 83.0901 13.8874 83.3789 13.623C83.6676 13.3587 83.8506 12.9521 83.9278 12.4031ZM90.3813 12.6898L91.5159 12.8301C91.3369 13.4929 91.0055 14.0073 90.5216 14.3733C90.0377 14.7393 89.4196 14.9223 88.6673 14.9223C87.7198 14.9223 86.9675 14.6315 86.4104 14.05C85.8574 13.4644 85.5809 12.6451 85.5809 11.5918C85.5809 10.502 85.8614 9.6562 86.4226 9.05436C86.9838 8.45252 87.7117 8.1516 88.6063 8.1516C89.4725 8.1516 90.18 8.44642 90.729 9.03606C91.278 9.6257 91.5525 10.4553 91.5525 11.5247C91.5525 11.5898 91.5504 11.6874 91.5464 11.8175H86.7154C86.7561 12.5292 86.9574 13.0741 87.3193 13.4522C87.6812 13.8304 88.1326 14.0195 88.6734 14.0195C89.076 14.0195 89.4196 13.9138 89.7043 13.7023C89.9889 13.4909 90.2146 13.1534 90.3813 12.6898ZM86.7764 10.9148H90.3935C90.3447 10.3699 90.2065 9.96118 89.9787 9.68873C89.629 9.26582 89.1756 9.05436 88.6185 9.05436C88.1143 9.05436 87.6893 9.22312 87.3437 9.56063C87.0021 9.89815 86.813 10.3495 86.7764 10.9148Z" fill="white"/>
</g>
</g>
<defs>
<filter id="filter0_d_3229_2099" x="22.645" y="3.68115" width="70.9072" height="13.2473" filterUnits="userSpaceOnUse" color-interpolation-filters="sRGB">
<feFlood flood-opacity="0" result="BackgroundImageFix"/>
<feColorMatrix in="SourceAlpha" type="matrix" values="0 0 0 0 0 0 0 0 0 0 0 0 0 0 0 0 0 0 127 0" result="hardAlpha"/>
<feOffset/>
<feGaussianBlur stdDeviation="1"/>
<feComposite in2="hardAlpha" operator="out"/>
<feColorMatrix type="matrix" values="0 0 0 0 0 0 0 0 0 0 0 0 0 0 0 0 0 0 0.5 0"/>
<feBlend mode="normal" in2="BackgroundImageFix" result="effect1_dropShadow_3229_2099"/>
<feBlend mode="normal" in="SourceGraphic" in2="effect1_dropShadow_3229_2099" result="shape"/>
</filter>
<clipPath id="clip0_3229_2099">
<rect width="71.34" height="16" fill="white" transform="translate(23.98 2.77588)"/>
</clipPath>
</defs>
</svg>
