<svg width="139" height="21" viewBox="0 0 139 21" fill="none" xmlns="http://www.w3.org/2000/svg">
<rect x="0.660156" y="0.893066" width="137.19" height="19" rx="9.5" stroke="white"/>
<rect x="7.16016" y="4.39307" width="12" height="12" rx="6" fill="white"/>
<g clip-path="url(#clip0_3229_1747)">
<g filter="url(#filter0_d_3229_1747)">
<path d="M24.3726 14.3931V5.0874H25.604V14.3931H24.3726ZM27.6353 14.3931V7.65186H28.6572V8.59766C28.8688 8.26758 29.1502 8.00309 29.5015 7.8042C29.8527 7.60107 30.2526 7.49951 30.7012 7.49951C31.2005 7.49951 31.6089 7.60319 31.9263 7.81055C32.2479 8.0179 32.4743 8.30778 32.6055 8.68018C33.1387 7.89307 33.8327 7.49951 34.6875 7.49951C35.3561 7.49951 35.8703 7.68571 36.23 8.05811C36.5897 8.42627 36.7695 8.99544 36.7695 9.76562V14.3931H35.6333V10.1465C35.6333 9.68945 35.5952 9.36149 35.519 9.1626C35.4471 8.95947 35.3138 8.79655 35.1191 8.67383C34.9245 8.55111 34.696 8.48975 34.4336 8.48975C33.9596 8.48975 33.5661 8.64844 33.2529 8.96582C32.9398 9.27897 32.7832 9.78255 32.7832 10.4766V14.3931H31.6406V10.0132C31.6406 9.50537 31.5475 9.12451 31.3613 8.87061C31.1751 8.6167 30.8704 8.48975 30.4473 8.48975C30.1257 8.48975 29.8273 8.57438 29.5522 8.74365C29.2814 8.91292 29.0846 9.16048 28.9619 9.48633C28.8392 9.81217 28.7778 10.2819 28.7778 10.8955V14.3931H27.6353ZM38.4644 16.9766V7.65186H39.5054V8.52783C39.7508 8.18506 40.028 7.92904 40.3369 7.75977C40.6458 7.58626 41.0203 7.49951 41.4604 7.49951C42.036 7.49951 42.5438 7.64762 42.9839 7.94385C43.424 8.24007 43.7562 8.65902 43.9805 9.20068C44.2048 9.73812 44.3169 10.3285 44.3169 10.9717C44.3169 11.6615 44.1921 12.2835 43.9424 12.8379C43.6969 13.388 43.3372 13.8112 42.8633 14.1074C42.3936 14.3994 41.8984 14.5454 41.3779 14.5454C40.9971 14.5454 40.6543 14.465 40.3496 14.3042C40.0492 14.1434 39.8016 13.9403 39.6069 13.6948V16.9766H38.4644ZM39.499 11.0605C39.499 11.9281 39.6746 12.5692 40.0259 12.9839C40.3771 13.3986 40.8024 13.606 41.3018 13.606C41.8096 13.606 42.2433 13.3923 42.603 12.9648C42.967 12.5332 43.1489 11.8667 43.1489 10.9653C43.1489 10.1063 42.9712 9.46305 42.6157 9.03564C42.2645 8.60824 41.8434 8.39453 41.3525 8.39453C40.8659 8.39453 40.4342 8.62305 40.0576 9.08008C39.6852 9.53288 39.499 10.193 39.499 11.0605ZM50.0996 13.5615C49.6764 13.9212 49.2681 14.1751 48.8745 14.3232C48.4852 14.4714 48.0662 14.5454 47.6177 14.5454C46.8771 14.5454 46.3079 14.3656 45.9102 14.0059C45.5124 13.6419 45.3135 13.1785 45.3135 12.6157C45.3135 12.2856 45.3875 11.9852 45.5356 11.7144C45.688 11.4393 45.8848 11.2192 46.126 11.0542C46.3714 10.8892 46.6465 10.7643 46.9512 10.6797C47.1755 10.6204 47.514 10.5633 47.9668 10.5083C48.8893 10.3983 49.5685 10.2671 50.0044 10.1147C50.0086 9.95817 50.0107 9.85872 50.0107 9.81641C50.0107 9.35091 49.9028 9.02295 49.687 8.83252C49.395 8.57438 48.9613 8.44531 48.3857 8.44531C47.8483 8.44531 47.4505 8.54053 47.1924 8.73096C46.9385 8.91715 46.7502 9.24935 46.6274 9.72754L45.5103 9.5752C45.6118 9.09701 45.779 8.71191 46.0117 8.41992C46.2445 8.1237 46.5809 7.8973 47.021 7.74072C47.4611 7.57992 47.971 7.49951 48.5508 7.49951C49.1263 7.49951 49.5939 7.56722 49.9536 7.70264C50.3133 7.83805 50.5778 8.00944 50.7471 8.2168C50.9163 8.41992 51.0348 8.67806 51.1025 8.99121C51.1406 9.18587 51.1597 9.53711 51.1597 10.0449V11.5684C51.1597 12.6305 51.1829 13.3034 51.2295 13.5869C51.2803 13.8662 51.3776 14.1349 51.5215 14.3931H50.3281C50.2096 14.1561 50.1335 13.8789 50.0996 13.5615ZM50.0044 11.0098C49.5897 11.179 48.9676 11.3229 48.1382 11.4414C47.6685 11.5091 47.3363 11.5853 47.1416 11.6699C46.9469 11.7546 46.7967 11.8794 46.6909 12.0444C46.5851 12.2052 46.5322 12.3851 46.5322 12.584C46.5322 12.8887 46.6465 13.1426 46.875 13.3457C47.1077 13.5488 47.4463 13.6504 47.8906 13.6504C48.3307 13.6504 48.7222 13.5552 49.0649 13.3647C49.4077 13.1701 49.6595 12.9056 49.8203 12.5713C49.943 12.3132 50.0044 11.9323 50.0044 11.4287V11.0098ZM57.3359 11.9238L58.4595 12.0698C58.3368 12.8442 58.0215 13.4515 57.5137 13.8916C57.0101 14.3275 56.3901 14.5454 55.6538 14.5454C54.7313 14.5454 53.9886 14.245 53.4258 13.644C52.8672 13.0389 52.5879 12.1735 52.5879 11.0479C52.5879 10.32 52.7085 9.68311 52.9497 9.13721C53.1909 8.59131 53.557 8.18294 54.0479 7.91211C54.543 7.63704 55.0804 7.49951 55.6602 7.49951C56.3923 7.49951 56.991 7.68571 57.4565 8.05811C57.922 8.42627 58.2204 8.95101 58.3516 9.63232L57.2407 9.80371C57.1349 9.35091 56.9466 9.01025 56.6758 8.78174C56.4092 8.55322 56.0854 8.43896 55.7046 8.43896C55.1291 8.43896 54.6615 8.64632 54.3018 9.06104C53.9421 9.47152 53.7622 10.1232 53.7622 11.0161C53.7622 11.9217 53.9357 12.5798 54.2827 12.9902C54.6297 13.4007 55.0825 13.606 55.6411 13.606C56.0897 13.606 56.4642 13.4684 56.7646 13.1934C57.0651 12.9183 57.2555 12.4951 57.3359 11.9238ZM61.9316 13.3711L62.0967 14.3804C61.7751 14.4481 61.4873 14.4819 61.2334 14.4819C60.8187 14.4819 60.4971 14.4163 60.2686 14.2852C60.04 14.154 59.8792 13.9826 59.7861 13.771C59.693 13.5552 59.6465 13.1045 59.6465 12.4189V8.54053H58.8086V7.65186H59.6465V5.98242L60.7827 5.29688V7.65186H61.9316V8.54053H60.7827V12.4824C60.7827 12.8083 60.8018 13.0177 60.8398 13.1108C60.8822 13.2039 60.9478 13.278 61.0366 13.333C61.1297 13.388 61.2609 13.4155 61.4302 13.4155C61.5571 13.4155 61.7243 13.4007 61.9316 13.3711ZM66.8447 14.3931V5.0874H73.5732V6.18555H68.0762V9.03564H73.2241V10.1274H68.0762V13.2949H73.7891V14.3931H66.8447ZM77.2168 14.3931L74.6523 7.65186H75.8584L77.3057 11.689C77.4622 12.1248 77.6061 12.5776 77.7373 13.0474C77.8389 12.6919 77.9806 12.2645 78.1626 11.7651L79.6606 7.65186H80.835L78.2832 14.3931H77.2168ZM86.2432 13.5615C85.82 13.9212 85.4116 14.1751 85.0181 14.3232C84.6287 14.4714 84.2098 14.5454 83.7612 14.5454C83.0207 14.5454 82.4515 14.3656 82.0537 14.0059C81.6559 13.6419 81.457 13.1785 81.457 12.6157C81.457 12.2856 81.5311 11.9852 81.6792 11.7144C81.8315 11.4393 82.0283 11.2192 82.2695 11.0542C82.515 10.8892 82.79 10.7643 83.0947 10.6797C83.319 10.6204 83.6576 10.5633 84.1104 10.5083C85.0329 10.3983 85.7121 10.2671 86.1479 10.1147C86.1522 9.95817 86.1543 9.85872 86.1543 9.81641C86.1543 9.35091 86.0464 9.02295 85.8306 8.83252C85.5386 8.57438 85.1048 8.44531 84.5293 8.44531C83.9919 8.44531 83.5941 8.54053 83.3359 8.73096C83.082 8.91715 82.8937 9.24935 82.771 9.72754L81.6538 9.5752C81.7554 9.09701 81.9225 8.71191 82.1553 8.41992C82.388 8.1237 82.7244 7.8973 83.1646 7.74072C83.6047 7.57992 84.1146 7.49951 84.6943 7.49951C85.2699 7.49951 85.7375 7.56722 86.0972 7.70264C86.4569 7.83805 86.7214 8.00944 86.8906 8.2168C87.0599 8.41992 87.1784 8.67806 87.2461 8.99121C87.2842 9.18587 87.3032 9.53711 87.3032 10.0449V11.5684C87.3032 12.6305 87.3265 13.3034 87.373 13.5869C87.4238 13.8662 87.5212 14.1349 87.665 14.3931H86.4717C86.3532 14.1561 86.277 13.8789 86.2432 13.5615ZM86.1479 11.0098C85.7332 11.179 85.1112 11.3229 84.2817 11.4414C83.812 11.5091 83.4798 11.5853 83.2852 11.6699C83.0905 11.7546 82.9403 11.8794 82.8345 12.0444C82.7287 12.2052 82.6758 12.3851 82.6758 12.584C82.6758 12.8887 82.79 13.1426 83.0186 13.3457C83.2513 13.5488 83.5898 13.6504 84.0342 13.6504C84.4743 13.6504 84.8657 13.5552 85.2085 13.3647C85.5513 13.1701 85.8031 12.9056 85.9639 12.5713C86.0866 12.3132 86.1479 11.9323 86.1479 11.4287V11.0098ZM89.0552 14.3931V5.0874H90.1978V14.3931H89.0552ZM96.3931 14.3931V13.4028C95.8683 14.1646 95.1553 14.5454 94.2539 14.5454C93.8561 14.5454 93.4837 14.4692 93.1367 14.3169C92.7939 14.1646 92.5379 13.9741 92.3687 13.7456C92.2036 13.5129 92.0872 13.2293 92.0195 12.895C91.973 12.6707 91.9497 12.3153 91.9497 11.8286V7.65186H93.0923V11.3906C93.0923 11.9873 93.1156 12.3893 93.1621 12.5967C93.234 12.8971 93.3864 13.1341 93.6191 13.3076C93.8519 13.4769 94.1396 13.5615 94.4824 13.5615C94.8252 13.5615 95.1468 13.4748 95.4473 13.3013C95.7477 13.1235 95.9593 12.8844 96.082 12.584C96.209 12.2793 96.2725 11.8392 96.2725 11.2637V7.65186H97.415V14.3931H96.3931ZM103.61 13.5615C103.187 13.9212 102.779 14.1751 102.385 14.3232C101.996 14.4714 101.577 14.5454 101.128 14.5454C100.388 14.5454 99.8187 14.3656 99.4209 14.0059C99.0231 13.6419 98.8242 13.1785 98.8242 12.6157C98.8242 12.2856 98.8983 11.9852 99.0464 11.7144C99.1987 11.4393 99.3955 11.2192 99.6367 11.0542C99.8822 10.8892 100.157 10.7643 100.462 10.6797C100.686 10.6204 101.025 10.5633 101.478 10.5083C102.4 10.3983 103.079 10.2671 103.515 10.1147C103.519 9.95817 103.521 9.85872 103.521 9.81641C103.521 9.35091 103.414 9.02295 103.198 8.83252C102.906 8.57438 102.472 8.44531 101.896 8.44531C101.359 8.44531 100.961 8.54053 100.703 8.73096C100.449 8.91715 100.261 9.24935 100.138 9.72754L99.021 9.5752C99.1226 9.09701 99.2897 8.71191 99.5225 8.41992C99.7552 8.1237 100.092 7.8973 100.532 7.74072C100.972 7.57992 101.482 7.49951 102.062 7.49951C102.637 7.49951 103.105 7.56722 103.464 7.70264C103.824 7.83805 104.089 8.00944 104.258 8.2168C104.427 8.41992 104.546 8.67806 104.613 8.99121C104.651 9.18587 104.67 9.53711 104.67 10.0449V11.5684C104.67 12.6305 104.694 13.3034 104.74 13.5869C104.791 13.8662 104.888 14.1349 105.032 14.3931H103.839C103.72 14.1561 103.644 13.8789 103.61 13.5615ZM103.515 11.0098C103.1 11.179 102.478 11.3229 101.649 11.4414C101.179 11.5091 100.847 11.5853 100.652 11.6699C100.458 11.7546 100.307 11.8794 100.202 12.0444C100.096 12.2052 100.043 12.3851 100.043 12.584C100.043 12.8887 100.157 13.1426 100.386 13.3457C100.618 13.5488 100.957 13.6504 101.401 13.6504C101.841 13.6504 102.233 13.5552 102.576 13.3647C102.918 13.1701 103.17 12.9056 103.331 12.5713C103.454 12.3132 103.515 11.9323 103.515 11.4287V11.0098ZM108.942 13.3711L109.107 14.3804C108.786 14.4481 108.498 14.4819 108.244 14.4819C107.829 14.4819 107.508 14.4163 107.279 14.2852C107.051 14.154 106.89 13.9826 106.797 13.771C106.704 13.5552 106.657 13.1045 106.657 12.4189V8.54053H105.819V7.65186H106.657V5.98242L107.793 5.29688V7.65186H108.942V8.54053H107.793V12.4824C107.793 12.8083 107.812 13.0177 107.851 13.1108C107.893 13.2039 107.958 13.278 108.047 13.333C108.14 13.388 108.272 13.4155 108.441 13.4155C108.568 13.4155 108.735 13.4007 108.942 13.3711ZM109.641 11.0225C109.641 9.77409 109.988 8.84945 110.682 8.24854C111.261 7.74919 111.968 7.49951 112.802 7.49951C113.729 7.49951 114.486 7.8042 115.074 8.41357C115.662 9.01872 115.957 9.85661 115.957 10.9272C115.957 11.7948 115.825 12.4782 115.563 12.9775C115.305 13.4727 114.926 13.8577 114.427 14.1328C113.932 14.4079 113.39 14.5454 112.802 14.5454C111.858 14.5454 111.094 14.2428 110.51 13.6377C109.931 13.0326 109.641 12.1608 109.641 11.0225ZM110.815 11.0225C110.815 11.8857 111.003 12.5332 111.38 12.9648C111.757 13.3923 112.23 13.606 112.802 13.606C113.369 13.606 113.841 13.3901 114.217 12.9585C114.594 12.5269 114.782 11.8688 114.782 10.9844C114.782 10.1507 114.592 9.52018 114.211 9.09277C113.834 8.66113 113.365 8.44531 112.802 8.44531C112.23 8.44531 111.757 8.65902 111.38 9.08643C111.003 9.51383 110.815 10.1592 110.815 11.0225ZM117.29 14.3931V7.65186H118.318V8.67383C118.58 8.19564 118.821 7.88037 119.042 7.72803C119.266 7.57568 119.511 7.49951 119.778 7.49951C120.163 7.49951 120.554 7.62223 120.952 7.86768L120.559 8.92773C120.279 8.7627 120 8.68018 119.721 8.68018C119.471 8.68018 119.247 8.75635 119.048 8.90869C118.849 9.0568 118.707 9.26416 118.623 9.53076C118.496 9.93701 118.432 10.3813 118.432 10.8638V14.3931H117.29ZM121.174 12.3809L122.304 12.2031C122.368 12.6559 122.543 13.0029 122.831 13.2441C123.123 13.4854 123.529 13.606 124.05 13.606C124.575 13.606 124.964 13.5002 125.218 13.2886C125.472 13.0728 125.599 12.821 125.599 12.5332C125.599 12.2751 125.486 12.0719 125.262 11.9238C125.106 11.8223 124.716 11.6932 124.094 11.5366C123.256 11.325 122.674 11.1431 122.349 10.9907C122.027 10.8341 121.782 10.6204 121.612 10.3496C121.447 10.0745 121.365 9.77197 121.365 9.44189C121.365 9.14144 121.432 8.86426 121.568 8.61035C121.708 8.35221 121.896 8.13851 122.133 7.96924C122.311 7.83805 122.552 7.72803 122.856 7.63916C123.165 7.54606 123.495 7.49951 123.847 7.49951C124.376 7.49951 124.839 7.57568 125.237 7.72803C125.639 7.88037 125.935 8.08773 126.125 8.3501C126.316 8.60824 126.447 8.95524 126.519 9.39111L125.402 9.54346C125.351 9.19645 125.203 8.92562 124.958 8.73096C124.716 8.5363 124.374 8.43896 123.929 8.43896C123.404 8.43896 123.03 8.52572 122.806 8.69922C122.581 8.87272 122.469 9.07585 122.469 9.30859C122.469 9.45671 122.516 9.59001 122.609 9.7085C122.702 9.83122 122.848 9.93278 123.047 10.0132C123.161 10.0555 123.498 10.1528 124.056 10.3052C124.864 10.521 125.427 10.6987 125.745 10.8384C126.066 10.9738 126.318 11.1727 126.5 11.4351C126.682 11.6974 126.773 12.0233 126.773 12.4126C126.773 12.7935 126.661 13.1532 126.437 13.4917C126.216 13.826 125.897 14.0863 125.478 14.2725C125.059 14.4544 124.585 14.5454 124.056 14.5454C123.18 14.5454 122.512 14.3634 122.05 13.9995C121.593 13.6356 121.301 13.096 121.174 12.3809Z" fill="white"/>
</g>
</g>
<defs>
<filter id="filter0_d_3229_1747" x="22.3726" y="3.0874" width="106.4" height="15.8892" filterUnits="userSpaceOnUse" color-interpolation-filters="sRGB">
<feFlood flood-opacity="0" result="BackgroundImageFix"/>
<feColorMatrix in="SourceAlpha" type="matrix" values="0 0 0 0 0 0 0 0 0 0 0 0 0 0 0 0 0 0 127 0" result="hardAlpha"/>
<feOffset/>
<feGaussianBlur stdDeviation="1"/>
<feComposite in2="hardAlpha" operator="out"/>
<feColorMatrix type="matrix" values="0 0 0 0 0 0 0 0 0 0 0 0 0 0 0 0 0 0 0.5 0"/>
<feBlend mode="normal" in2="BackgroundImageFix" result="effect1_dropShadow_3229_1747"/>
<feBlend mode="normal" in="SourceGraphic" in2="effect1_dropShadow_3229_1747" result="shape"/>
</filter>
<clipPath id="clip0_3229_1747">
<rect width="108.19" height="16" fill="white" transform="translate(23.1602 2.39307)"/>
</clipPath>
</defs>
</svg>
