<svg width="79" height="21" viewBox="0 0 79 21" fill="none" xmlns="http://www.w3.org/2000/svg">
<g clip-path="url(#clip0_3319_868)">
<rect x="7" y="4.80994" width="12" height="12" rx="6" fill="white"/>
<g clip-path="url(#clip1_3319_868)">
<path d="M23.9277 14.3099V5.36218H25.71L27.8279 11.6976C28.0232 12.2876 28.1656 12.7291 28.2551 13.0221C28.3569 12.6966 28.5155 12.2185 28.7312 11.5878L30.8735 5.36218H32.4666V14.3099H31.3252V6.82092L28.7251 14.3099H27.657L25.0691 6.69275V14.3099H23.9277ZM38.6738 12.2225L39.8091 12.3629C39.63 13.0262 39.2984 13.5409 38.8142 13.9071C38.33 14.2733 37.7115 14.4564 36.9587 14.4564C36.0107 14.4564 35.2579 14.1655 34.7004 13.5836C34.1471 12.9977 33.8704 12.1778 33.8704 11.1239C33.8704 10.0334 34.1511 9.18705 34.7126 8.58484C35.2742 7.98263 36.0025 7.68152 36.8977 7.68152C37.7644 7.68152 38.4724 7.97652 39.0217 8.56653C39.571 9.15653 39.8457 9.98661 39.8457 11.0568C39.8457 11.1219 39.8437 11.2195 39.8396 11.3497H35.0056C35.0463 12.0618 35.2477 12.6071 35.6099 12.9855C35.972 13.3639 36.4237 13.5531 36.9648 13.5531C37.3677 13.5531 37.7115 13.4473 37.9963 13.2357C38.2812 13.0241 38.507 12.6864 38.6738 12.2225ZM35.0667 10.4464H38.686C38.6372 9.90116 38.4989 9.49223 38.271 9.2196C37.9211 8.79643 37.4674 8.58484 36.9099 8.58484C36.4054 8.58484 35.9801 8.7537 35.6343 9.09143C35.2925 9.42916 35.1033 9.88082 35.0667 10.4464ZM41.1946 14.3099V7.828H42.1772V8.73743C42.3807 8.42004 42.6513 8.16573 42.989 7.97449C43.3267 7.77917 43.7113 7.68152 44.1426 7.68152C44.6227 7.68152 45.0154 7.78121 45.3206 7.98059C45.6298 8.17997 45.8475 8.4587 45.9736 8.81677C46.4863 8.05994 47.1536 7.68152 47.9756 7.68152C48.6185 7.68152 49.1129 7.86056 49.4587 8.21863C49.8046 8.57263 49.9775 9.11991 49.9775 9.86047V14.3099H48.885V10.2267C48.885 9.78723 48.8484 9.47188 48.7751 9.28064C48.706 9.08533 48.5778 8.92867 48.3906 8.81067C48.2035 8.69267 47.9837 8.63367 47.7314 8.63367C47.2757 8.63367 46.8973 8.78625 46.5962 9.09143C46.2951 9.39254 46.1445 9.87675 46.1445 10.5441V14.3099H45.0459V10.0985C45.0459 9.61023 44.9564 9.24402 44.7773 8.99988C44.5983 8.75574 44.3053 8.63367 43.8984 8.63367C43.5892 8.63367 43.3023 8.71505 43.0378 8.87781C42.7774 9.04057 42.5882 9.27861 42.4702 9.59192C42.3522 9.90523 42.2932 10.3569 42.2932 10.9469V14.3099H41.1946ZM52.6204 14.3099H51.6011V5.36218H52.6997V8.55432C53.1636 7.97245 53.7556 7.68152 54.4758 7.68152C54.8746 7.68152 55.251 7.7629 55.605 7.92566C55.9631 8.08435 56.256 8.31018 56.4839 8.60315C56.7158 8.89205 56.8969 9.24198 57.0271 9.65295C57.1573 10.0639 57.2224 10.5034 57.2224 10.9713C57.2224 12.0822 56.9478 12.9407 56.3984 13.547C55.8491 14.1533 55.1899 14.4564 54.4209 14.4564C53.6559 14.4564 53.0557 14.137 52.6204 13.4982V14.3099ZM52.6082 11.0201C52.6082 11.7973 52.7139 12.3588 52.9255 12.7047C53.2714 13.2703 53.7393 13.5531 54.3293 13.5531C54.8095 13.5531 55.2245 13.3456 55.5745 12.9305C55.9244 12.5114 56.0994 11.8889 56.0994 11.0629C56.0994 10.2165 55.9305 9.59192 55.5928 9.18909C55.2591 8.78625 54.8542 8.58484 54.3782 8.58484C53.898 8.58484 53.483 8.79439 53.1331 9.2135C52.7831 9.62854 52.6082 10.2308 52.6082 11.0201ZM63.0024 12.2225L64.1377 12.3629C63.9587 13.0262 63.627 13.5409 63.1428 13.9071C62.6586 14.2733 62.0401 14.4564 61.2874 14.4564C60.3393 14.4564 59.5865 14.1655 59.0291 13.5836C58.4757 12.9977 58.199 12.1778 58.199 11.1239C58.199 10.0334 58.4797 9.18705 59.0413 8.58484C59.6028 7.98263 60.3311 7.68152 61.2263 7.68152C62.093 7.68152 62.801 7.97652 63.3503 8.56653C63.8997 9.15653 64.1743 9.98661 64.1743 11.0568C64.1743 11.1219 64.1723 11.2195 64.1682 11.3497H59.3342C59.3749 12.0618 59.5763 12.6071 59.9385 12.9855C60.3006 13.3639 60.7523 13.5531 61.2935 13.5531C61.6963 13.5531 62.0401 13.4473 62.325 13.2357C62.6098 13.0241 62.8356 12.6864 63.0024 12.2225ZM59.3953 10.4464H63.0146C62.9658 9.90116 62.8275 9.49223 62.5996 9.2196C62.2497 8.79643 61.796 8.58484 61.2385 8.58484C60.734 8.58484 60.3088 8.7537 59.9629 9.09143C59.6211 9.42916 59.4319 9.88082 59.3953 10.4464ZM65.511 14.3099V7.828H66.4998V8.81067C66.752 8.35087 66.984 8.04773 67.1956 7.90125C67.4112 7.75476 67.6472 7.68152 67.9036 7.68152C68.2738 7.68152 68.6502 7.79952 69.0327 8.03552L68.6543 9.05481C68.3857 8.89612 68.1172 8.81677 67.8486 8.81677C67.6086 8.81677 67.3929 8.89001 67.2017 9.0365C67.0104 9.17891 66.8741 9.3783 66.7927 9.63464C66.6707 10.0253 66.6096 10.4525 66.6096 10.9164V14.3099H65.511Z" fill="white"/>
</g>
<rect x="0.5" y="1.30994" width="78" height="19" rx="9.5" stroke="white"/>
</g>
<defs>
<clipPath id="clip0_3319_868">
<rect y="0.809937" width="79" height="20" rx="10" fill="white"/>
</clipPath>
<clipPath id="clip1_3319_868">
<rect width="49" height="16" fill="white" transform="translate(23 2.80994)"/>
</clipPath>
</defs>
</svg>
