<svg width="75" height="21" viewBox="0 0 75 21" fill="none" xmlns="http://www.w3.org/2000/svg">
<rect x="1.39014" y="0.554932" width="73.11" height="19" rx="9.5" stroke="white"/>
<rect x="7.89014" y="4.05493" width="12" height="12" rx="6" fill="white"/>
<g clip-path="url(#clip0_3229_343)">
<g filter="url(#filter0_d_3229_343)">
<path d="M24.8539 14.0549V5.11277H28.227C28.8207 5.11277 29.2741 5.14124 29.5873 5.19817C30.0264 5.27136 30.3945 5.41166 30.6913 5.61905C30.9882 5.82237 31.226 6.10905 31.405 6.4791C31.588 6.84915 31.6795 7.2558 31.6795 7.69904C31.6795 8.45947 31.4375 9.10401 30.9536 9.63265C30.4697 10.1572 29.5954 10.4195 28.3307 10.4195H26.0372V14.0549H24.8539ZM26.0372 9.36426H28.349C29.1135 9.36426 29.6564 9.22194 29.9776 8.93728C30.2989 8.65263 30.4595 8.25208 30.4595 7.73564C30.4595 7.36153 30.364 7.04231 30.1728 6.77799C29.9858 6.5096 29.7377 6.33271 29.4287 6.24731C29.2294 6.19445 28.8614 6.16802 28.3246 6.16802H26.0372V9.36426ZM33.0336 14.0549V7.57705H34.0217V8.5591C34.2739 8.09959 34.5056 7.79664 34.7171 7.65025C34.9326 7.50385 35.1685 7.43066 35.4247 7.43066C35.7947 7.43066 36.1709 7.54858 36.5531 7.78444L36.1749 8.80309C35.9065 8.6445 35.6382 8.5652 35.3698 8.5652C35.1299 8.5652 34.9143 8.6384 34.7232 8.78479C34.5321 8.92712 34.3959 9.12637 34.3145 9.38256C34.1925 9.77294 34.1315 10.1999 34.1315 10.6635V14.0549H33.0336ZM37.2119 6.37541V5.11277H38.3098V6.37541H37.2119ZM37.2119 14.0549V7.57705H38.3098V14.0549H37.2119ZM41.7867 14.0549L39.3224 7.57705H40.4813L41.8721 11.4565C42.0225 11.8753 42.1608 12.3104 42.2868 12.7618C42.3844 12.4202 42.5207 12.0095 42.6955 11.5297L44.135 7.57705H45.2635L42.8114 14.0549H41.7867ZM50.4604 13.2559C50.0538 13.6015 49.6614 13.8455 49.2832 13.9878C48.9091 14.1302 48.5065 14.2013 48.0755 14.2013C47.3638 14.2013 46.8169 14.0285 46.4346 13.6828C46.0524 13.3331 45.8613 12.8879 45.8613 12.347C45.8613 12.0298 45.9324 11.7411 46.0747 11.4809C46.2211 11.2165 46.4102 11.0051 46.642 10.8465C46.8779 10.6879 47.1422 10.5679 47.435 10.4866C47.6505 10.4297 47.9758 10.3748 48.4109 10.3219C49.2974 10.2162 49.9501 10.0901 50.3689 9.94373C50.373 9.79327 50.375 9.69771 50.375 9.65705C50.375 9.20974 50.2713 8.89458 50.064 8.71159C49.7834 8.46354 49.3666 8.33951 48.8135 8.33951C48.2971 8.33951 47.9148 8.43101 47.6668 8.614C47.4228 8.79292 47.2418 9.11214 47.1239 9.57165L46.0504 9.42526C46.1479 8.96575 46.3086 8.5957 46.5322 8.31511C46.7559 8.03046 47.0792 7.8129 47.5021 7.66245C47.925 7.50792 48.415 7.43066 48.9721 7.43066C49.5251 7.43066 49.9745 7.49572 50.3201 7.62585C50.6658 7.75597 50.9199 7.92067 51.0826 8.11992C51.2453 8.31511 51.3591 8.56317 51.4242 8.86409C51.4608 9.05114 51.4791 9.38866 51.4791 9.87664V11.3406C51.4791 12.3612 51.5014 13.0078 51.5462 13.2803C51.595 13.5487 51.6885 13.8069 51.8268 14.0549H50.68C50.5662 13.8272 50.493 13.5609 50.4604 13.2559ZM50.3689 10.8038C49.9704 10.9664 49.3727 11.1047 48.5756 11.2186C48.1242 11.2836 47.805 11.3568 47.618 11.4382C47.4309 11.5195 47.2866 11.6395 47.1849 11.798C47.0832 11.9526 47.0324 12.1254 47.0324 12.3165C47.0324 12.6093 47.1422 12.8533 47.3618 13.0485C47.5854 13.2437 47.9108 13.3413 48.3377 13.3413C48.7607 13.3413 49.1368 13.2498 49.4662 13.0668C49.7956 12.8797 50.0375 12.6256 50.192 12.3043C50.31 12.0563 50.3689 11.6903 50.3689 11.2064V10.8038ZM57.4141 11.6821L58.4937 11.8224C58.3758 12.5666 58.0729 13.1501 57.5849 13.5731C57.101 13.9919 56.5052 14.2013 55.7977 14.2013C54.9112 14.2013 54.1975 13.9126 53.6567 13.3352C53.1199 12.7537 52.8515 11.9221 52.8515 10.8404C52.8515 10.141 52.9674 9.52895 53.1992 9.00438C53.431 8.4798 53.7827 8.08739 54.2544 7.82714C54.7302 7.56282 55.2467 7.43066 55.8038 7.43066C56.5073 7.43066 57.0827 7.60958 57.53 7.96743C57.9773 8.32121 58.264 8.82545 58.39 9.48016L57.3226 9.64485C57.2209 9.20974 57.04 8.88239 56.7797 8.6628C56.5235 8.44321 56.2125 8.33341 55.8465 8.33341C55.2934 8.33341 54.8441 8.53267 54.4984 8.93118C54.1528 9.32563 53.98 9.95187 53.98 10.8099C53.98 11.6801 54.1467 12.3125 54.4801 12.7069C54.8136 13.1013 55.2487 13.2986 55.7855 13.2986C56.2165 13.2986 56.5764 13.1664 56.8651 12.9021C57.1538 12.6378 57.3368 12.2311 57.4141 11.6821ZM59.3843 16.5497L59.2623 15.5189C59.5022 15.5839 59.7116 15.6165 59.8906 15.6165C60.1346 15.6165 60.3298 15.5758 60.4761 15.4945C60.6225 15.4131 60.7425 15.2993 60.836 15.1529C60.9052 15.0431 61.017 14.7706 61.1715 14.3355C61.1918 14.2745 61.2244 14.1851 61.2691 14.0671L58.8109 7.57705H59.9943L61.3423 11.3284C61.5172 11.8041 61.6737 12.3043 61.812 12.8289C61.938 12.3246 62.0885 11.8326 62.2634 11.3528L63.648 7.57705H64.7459L62.2817 14.1647C62.0173 14.8764 61.812 15.3664 61.6656 15.6348C61.4704 15.9967 61.2467 16.261 60.9946 16.4277C60.7425 16.5985 60.4416 16.6839 60.0919 16.6839C59.8804 16.6839 59.6446 16.6392 59.3843 16.5497Z" fill="white"/>
</g>
</g>
<defs>
<filter id="filter0_d_3229_343" x="22.854" y="3.11279" width="43.8921" height="15.5712" filterUnits="userSpaceOnUse" color-interpolation-filters="sRGB">
<feFlood flood-opacity="0" result="BackgroundImageFix"/>
<feColorMatrix in="SourceAlpha" type="matrix" values="0 0 0 0 0 0 0 0 0 0 0 0 0 0 0 0 0 0 127 0" result="hardAlpha"/>
<feOffset/>
<feGaussianBlur stdDeviation="1"/>
<feComposite in2="hardAlpha" operator="out"/>
<feColorMatrix type="matrix" values="0 0 0 0 0 0 0 0 0 0 0 0 0 0 0 0 0 0 0.5 0"/>
<feBlend mode="normal" in2="BackgroundImageFix" result="effect1_dropShadow_3229_343"/>
<feBlend mode="normal" in="SourceGraphic" in2="effect1_dropShadow_3229_343" result="shape"/>
</filter>
<clipPath id="clip0_3229_343">
<rect width="44.11" height="16" fill="white" transform="translate(23.8901 2.05493)"/>
</clipPath>
</defs>
</svg>
