<svg width="142" height="21" viewBox="0 0 142 21" fill="none" xmlns="http://www.w3.org/2000/svg">
<rect x="0.660156" y="0.763672" width="140.55" height="19" rx="9.5" stroke="white"/>
<rect x="7.16016" y="4.26367" width="12" height="12" rx="6" fill="white"/>
<g clip-path="url(#clip0_3229_1244)">
<g filter="url(#filter0_d_3229_1244)">
<path d="M23.7441 11.2739L24.9058 11.1724C24.9608 11.6379 25.0877 12.0208 25.2866 12.3213C25.4897 12.6175 25.8029 12.8587 26.2261 13.0449C26.6493 13.2269 27.1253 13.3179 27.6543 13.3179C28.124 13.3179 28.5387 13.248 28.8984 13.1084C29.2581 12.9688 29.5247 12.7783 29.6982 12.5371C29.876 12.2917 29.9648 12.0251 29.9648 11.7373C29.9648 11.4453 29.8802 11.1914 29.7109 10.9756C29.5417 10.7555 29.2624 10.5715 28.873 10.4233C28.6234 10.326 28.0711 10.1758 27.2163 9.97266C26.3615 9.7653 25.7627 9.57064 25.4199 9.38867C24.9756 9.15592 24.6434 8.86816 24.4233 8.52539C24.2075 8.17839 24.0996 7.79118 24.0996 7.36377C24.0996 6.89404 24.2329 6.45605 24.4995 6.0498C24.7661 5.63932 25.1554 5.32829 25.6675 5.1167C26.1795 4.90511 26.7487 4.79932 27.375 4.79932C28.0648 4.79932 28.672 4.91146 29.1968 5.13574C29.7257 5.35579 30.132 5.68164 30.4155 6.11328C30.6991 6.54492 30.8514 7.03369 30.8726 7.57959L29.6919 7.66846C29.6284 7.08024 29.4126 6.6359 29.0444 6.33545C28.6805 6.03499 28.141 5.88477 27.4258 5.88477C26.681 5.88477 26.1372 6.0223 25.7944 6.29736C25.4559 6.5682 25.2866 6.89616 25.2866 7.28125C25.2866 7.61556 25.4072 7.89062 25.6484 8.10645C25.8854 8.32227 26.5033 8.54443 27.502 8.77295C28.5049 8.99723 29.1925 9.19401 29.5649 9.36328C30.1066 9.61296 30.5065 9.93034 30.7646 10.3154C31.0228 10.6963 31.1519 11.1364 31.1519 11.6357C31.1519 12.1309 31.0101 12.5985 30.7266 13.0386C30.443 13.4744 30.0347 13.8151 29.5015 14.0605C28.9725 14.3018 28.3758 14.4224 27.7114 14.4224C26.8693 14.4224 26.1626 14.2996 25.5913 14.0542C25.0243 13.8088 24.5778 13.4406 24.252 12.9497C23.9303 12.4546 23.7611 11.896 23.7441 11.2739ZM32.2627 10.8931C32.2627 9.64469 32.6097 8.72005 33.3037 8.11914C33.8835 7.61979 34.5902 7.37012 35.4238 7.37012C36.3506 7.37012 37.1081 7.6748 37.6963 8.28418C38.2845 8.88932 38.5786 9.72721 38.5786 10.7979C38.5786 11.6654 38.4474 12.3488 38.1851 12.8481C37.9269 13.3433 37.5482 13.7284 37.0488 14.0034C36.5537 14.2785 36.012 14.416 35.4238 14.416C34.4801 14.416 33.7163 14.1134 33.1323 13.5083C32.5526 12.9032 32.2627 12.0314 32.2627 10.8931ZM33.437 10.8931C33.437 11.7563 33.6253 12.4038 34.002 12.8354C34.3786 13.2629 34.8525 13.4766 35.4238 13.4766C35.9909 13.4766 36.4627 13.2607 36.8394 12.8291C37.216 12.3975 37.4043 11.7394 37.4043 10.855C37.4043 10.0213 37.2139 9.39079 36.833 8.96338C36.4564 8.53174 35.9867 8.31592 35.4238 8.31592C34.8525 8.31592 34.3786 8.52962 34.002 8.95703C33.6253 9.38444 33.437 10.0298 33.437 10.8931ZM44.3232 11.7944L45.4468 11.9404C45.3241 12.7148 45.0088 13.3221 44.501 13.7622C43.9974 14.1981 43.3774 14.416 42.6411 14.416C41.7186 14.416 40.9759 14.1156 40.4131 13.5146C39.8545 12.9095 39.5752 12.0441 39.5752 10.9185C39.5752 10.1906 39.6958 9.55371 39.937 9.00781C40.1782 8.46191 40.5443 8.05355 41.0352 7.78271C41.5303 7.50765 42.0677 7.37012 42.6475 7.37012C43.3796 7.37012 43.9784 7.55632 44.4438 7.92871C44.9093 8.29688 45.2077 8.82161 45.3389 9.50293L44.228 9.67432C44.1222 9.22152 43.9339 8.88086 43.6631 8.65234C43.3965 8.42383 43.0728 8.30957 42.6919 8.30957C42.1164 8.30957 41.6488 8.51693 41.2891 8.93164C40.9294 9.34212 40.7495 9.99382 40.7495 10.8867C40.7495 11.7923 40.923 12.4504 41.27 12.8608C41.617 13.2713 42.0698 13.4766 42.6284 13.4766C43.077 13.4766 43.4515 13.339 43.752 13.064C44.0524 12.7889 44.2428 12.3657 44.3232 11.7944ZM46.4307 6.27197V4.95801H47.5732V6.27197H46.4307ZM46.4307 14.2637V7.52246H47.5732V14.2637H46.4307ZM53.7178 13.4321C53.2946 13.7918 52.8862 14.0457 52.4927 14.1938C52.1034 14.342 51.6844 14.416 51.2358 14.416C50.4953 14.416 49.9261 14.2362 49.5283 13.8765C49.1305 13.5125 48.9316 13.0492 48.9316 12.4863C48.9316 12.1562 49.0057 11.8558 49.1538 11.585C49.3062 11.3099 49.5029 11.0898 49.7441 10.9248C49.9896 10.7598 50.2646 10.6349 50.5693 10.5503C50.7936 10.491 51.1322 10.4339 51.585 10.3789C52.5075 10.2689 53.1867 10.1377 53.6226 9.98535C53.6268 9.82878 53.6289 9.72933 53.6289 9.68701C53.6289 9.22152 53.521 8.89355 53.3052 8.70312C53.0132 8.44499 52.5794 8.31592 52.0039 8.31592C51.4665 8.31592 51.0687 8.41113 50.8105 8.60156C50.5566 8.78776 50.3683 9.11995 50.2456 9.59814L49.1284 9.4458C49.23 8.96761 49.3971 8.58252 49.6299 8.29053C49.8626 7.9943 50.1991 7.7679 50.6392 7.61133C51.0793 7.45052 51.5892 7.37012 52.1689 7.37012C52.7445 7.37012 53.2121 7.43783 53.5718 7.57324C53.9315 7.70866 54.196 7.88005 54.3652 8.0874C54.5345 8.29053 54.653 8.54867 54.7207 8.86182C54.7588 9.05648 54.7778 9.40771 54.7778 9.91553V11.439C54.7778 12.5011 54.8011 13.174 54.8477 13.4575C54.8984 13.7368 54.9958 14.0055 55.1396 14.2637H53.9463C53.8278 14.0267 53.7516 13.7495 53.7178 13.4321ZM53.6226 10.8804C53.2078 11.0496 52.5858 11.1935 51.7563 11.312C51.2866 11.3797 50.9544 11.4559 50.7598 11.5405C50.5651 11.6252 50.4149 11.75 50.3091 11.915C50.2033 12.0758 50.1504 12.2557 50.1504 12.4546C50.1504 12.7593 50.2646 13.0132 50.4932 13.2163C50.7259 13.4194 51.0645 13.521 51.5088 13.521C51.9489 13.521 52.3403 13.4258 52.6831 13.2354C53.0259 13.0407 53.2777 12.7762 53.4385 12.4419C53.5612 12.1838 53.6226 11.8029 53.6226 11.2993V10.8804ZM56.5298 14.2637V4.95801H57.6724V14.2637H56.5298ZM58.9927 12.2515L60.1226 12.0737C60.186 12.5265 60.3617 12.8735 60.6494 13.1147C60.9414 13.356 61.3477 13.4766 61.8682 13.4766C62.3929 13.4766 62.7822 13.3708 63.0361 13.1592C63.29 12.9434 63.417 12.6916 63.417 12.4038C63.417 12.1457 63.3049 11.9425 63.0806 11.7944C62.924 11.6929 62.5347 11.5638 61.9126 11.4072C61.0747 11.1956 60.4928 11.0137 60.167 10.8613C59.8454 10.7048 59.5999 10.491 59.4307 10.2202C59.2656 9.94515 59.1831 9.64258 59.1831 9.3125C59.1831 9.01204 59.2508 8.73486 59.3862 8.48096C59.5259 8.22282 59.7142 8.00911 59.9512 7.83984C60.1289 7.70866 60.3701 7.59863 60.6748 7.50977C60.9837 7.41667 61.3138 7.37012 61.665 7.37012C62.194 7.37012 62.6574 7.44629 63.0552 7.59863C63.4572 7.75098 63.7534 7.95833 63.9438 8.2207C64.1343 8.47884 64.2655 8.82585 64.3374 9.26172L63.2202 9.41406C63.1694 9.06706 63.0213 8.79622 62.7759 8.60156C62.5347 8.4069 62.1919 8.30957 61.7476 8.30957C61.2228 8.30957 60.8483 8.39632 60.624 8.56982C60.3997 8.74333 60.2876 8.94645 60.2876 9.1792C60.2876 9.32731 60.3341 9.46061 60.4272 9.5791C60.5203 9.70182 60.6663 9.80339 60.8652 9.88379C60.9795 9.92611 61.3159 10.0234 61.8745 10.1758C62.6828 10.3916 63.2456 10.5693 63.563 10.709C63.8846 10.8444 64.1364 11.0433 64.3184 11.3057C64.5003 11.568 64.5913 11.8939 64.5913 12.2832C64.5913 12.6641 64.4792 13.0238 64.2549 13.3623C64.0348 13.6966 63.7153 13.9569 63.2964 14.1431C62.8774 14.325 62.4035 14.416 61.8745 14.416C60.9985 14.416 60.3299 14.234 59.8687 13.8701C59.4116 13.5062 59.1196 12.9666 58.9927 12.2515ZM65.0928 14.4224L67.7905 4.79932H68.7046L66.0132 14.4224H65.0928ZM69.6758 14.2637V4.95801H71.5293L73.7319 11.5469C73.9351 12.1605 74.0832 12.6196 74.1763 12.9243C74.2821 12.5858 74.4471 12.0885 74.6714 11.4326L76.8994 4.95801H78.5562V14.2637H77.3691V6.4751L74.665 14.2637H73.5542L70.8628 6.3418V14.2637H69.6758ZM85.0117 12.0928L86.1924 12.2388C86.0062 12.9285 85.6613 13.4639 85.1577 13.8447C84.6541 14.2256 84.0109 14.416 83.228 14.416C82.242 14.416 81.4591 14.1134 80.8794 13.5083C80.3039 12.8989 80.0161 12.0462 80.0161 10.9502C80.0161 9.81608 80.3081 8.93587 80.8921 8.30957C81.4761 7.68327 82.2336 7.37012 83.1646 7.37012C84.0659 7.37012 84.8022 7.67692 85.3735 8.29053C85.9448 8.90413 86.2305 9.76742 86.2305 10.8804C86.2305 10.9481 86.2284 11.0496 86.2241 11.1851H81.1968C81.2391 11.9256 81.4486 12.4927 81.8252 12.8862C82.2018 13.2798 82.6715 13.4766 83.2344 13.4766C83.6533 13.4766 84.0109 13.3665 84.3071 13.1465C84.6034 12.9264 84.8382 12.5752 85.0117 12.0928ZM81.2603 10.2456H85.0244C84.9736 9.67855 84.8298 9.25326 84.5928 8.96973C84.2288 8.52962 83.757 8.30957 83.1772 8.30957C82.6525 8.30957 82.2103 8.48519 81.8506 8.83643C81.4951 9.18766 81.2983 9.65739 81.2603 10.2456ZM87.1763 12.2515L88.3062 12.0737C88.3696 12.5265 88.5452 12.8735 88.833 13.1147C89.125 13.356 89.5312 13.4766 90.0518 13.4766C90.5765 13.4766 90.9658 13.3708 91.2197 13.1592C91.4736 12.9434 91.6006 12.6916 91.6006 12.4038C91.6006 12.1457 91.4884 11.9425 91.2642 11.7944C91.1076 11.6929 90.7183 11.5638 90.0962 11.4072C89.2583 11.1956 88.6764 11.0137 88.3506 10.8613C88.029 10.7048 87.7835 10.491 87.6143 10.2202C87.4492 9.94515 87.3667 9.64258 87.3667 9.3125C87.3667 9.01204 87.4344 8.73486 87.5698 8.48096C87.7095 8.22282 87.8978 8.00911 88.1348 7.83984C88.3125 7.70866 88.5537 7.59863 88.8584 7.50977C89.1673 7.41667 89.4974 7.37012 89.8486 7.37012C90.3776 7.37012 90.841 7.44629 91.2388 7.59863C91.6408 7.75098 91.937 7.95833 92.1274 8.2207C92.3179 8.47884 92.4491 8.82585 92.521 9.26172L91.4038 9.41406C91.353 9.06706 91.2049 8.79622 90.9595 8.60156C90.7183 8.4069 90.3755 8.30957 89.9312 8.30957C89.4064 8.30957 89.0319 8.39632 88.8076 8.56982C88.5833 8.74333 88.4712 8.94645 88.4712 9.1792C88.4712 9.32731 88.5177 9.46061 88.6108 9.5791C88.7039 9.70182 88.8499 9.80339 89.0488 9.88379C89.1631 9.92611 89.4995 10.0234 90.0581 10.1758C90.8664 10.3916 91.4292 10.5693 91.7466 10.709C92.0682 10.8444 92.32 11.0433 92.502 11.3057C92.6839 11.568 92.7749 11.8939 92.7749 12.2832C92.7749 12.6641 92.6628 13.0238 92.4385 13.3623C92.2184 13.6966 91.8989 13.9569 91.48 14.1431C91.061 14.325 90.5871 14.416 90.0581 14.416C89.1821 14.416 88.5135 14.234 88.0522 13.8701C87.5952 13.5062 87.3032 12.9666 87.1763 12.2515ZM93.6763 12.2515L94.8062 12.0737C94.8696 12.5265 95.0452 12.8735 95.333 13.1147C95.625 13.356 96.0312 13.4766 96.5518 13.4766C97.0765 13.4766 97.4658 13.3708 97.7197 13.1592C97.9736 12.9434 98.1006 12.6916 98.1006 12.4038C98.1006 12.1457 97.9884 11.9425 97.7642 11.7944C97.6076 11.6929 97.2183 11.5638 96.5962 11.4072C95.7583 11.1956 95.1764 11.0137 94.8506 10.8613C94.529 10.7048 94.2835 10.491 94.1143 10.2202C93.9492 9.94515 93.8667 9.64258 93.8667 9.3125C93.8667 9.01204 93.9344 8.73486 94.0698 8.48096C94.2095 8.22282 94.3978 8.00911 94.6348 7.83984C94.8125 7.70866 95.0537 7.59863 95.3584 7.50977C95.6673 7.41667 95.9974 7.37012 96.3486 7.37012C96.8776 7.37012 97.341 7.44629 97.7388 7.59863C98.1408 7.75098 98.437 7.95833 98.6274 8.2207C98.8179 8.47884 98.9491 8.82585 99.021 9.26172L97.9038 9.41406C97.853 9.06706 97.7049 8.79622 97.4595 8.60156C97.2183 8.4069 96.8755 8.30957 96.4312 8.30957C95.9064 8.30957 95.5319 8.39632 95.3076 8.56982C95.0833 8.74333 94.9712 8.94645 94.9712 9.1792C94.9712 9.32731 95.0177 9.46061 95.1108 9.5791C95.2039 9.70182 95.3499 9.80339 95.5488 9.88379C95.6631 9.92611 95.9995 10.0234 96.5581 10.1758C97.3664 10.3916 97.9292 10.5693 98.2466 10.709C98.5682 10.8444 98.82 11.0433 99.002 11.3057C99.1839 11.568 99.2749 11.8939 99.2749 12.2832C99.2749 12.6641 99.1628 13.0238 98.9385 13.3623C98.7184 13.6966 98.3989 13.9569 97.98 14.1431C97.561 14.325 97.0871 14.416 96.5581 14.416C95.6821 14.416 95.0135 14.234 94.5522 13.8701C94.0952 13.5062 93.8032 12.9666 93.6763 12.2515ZM105.032 13.4321C104.609 13.7918 104.201 14.0457 103.807 14.1938C103.418 14.342 102.999 14.416 102.55 14.416C101.81 14.416 101.241 14.2362 100.843 13.8765C100.445 13.5125 100.246 13.0492 100.246 12.4863C100.246 12.1562 100.32 11.8558 100.468 11.585C100.621 11.3099 100.817 11.0898 101.059 10.9248C101.304 10.7598 101.579 10.6349 101.884 10.5503C102.108 10.491 102.447 10.4339 102.899 10.3789C103.822 10.2689 104.501 10.1377 104.937 9.98535C104.941 9.82878 104.943 9.72933 104.943 9.68701C104.943 9.22152 104.835 8.89355 104.62 8.70312C104.328 8.44499 103.894 8.31592 103.318 8.31592C102.781 8.31592 102.383 8.41113 102.125 8.60156C101.871 8.78776 101.683 9.11995 101.56 9.59814L100.443 9.4458C100.544 8.96761 100.712 8.58252 100.944 8.29053C101.177 7.9943 101.514 7.7679 101.954 7.61133C102.394 7.45052 102.904 7.37012 103.483 7.37012C104.059 7.37012 104.527 7.43783 104.886 7.57324C105.246 7.70866 105.51 7.88005 105.68 8.0874C105.849 8.29053 105.967 8.54867 106.035 8.86182C106.073 9.05648 106.092 9.40771 106.092 9.91553V11.439C106.092 12.5011 106.116 13.174 106.162 13.4575C106.213 13.7368 106.31 14.0055 106.454 14.2637H105.261C105.142 14.0267 105.066 13.7495 105.032 13.4321ZM104.937 10.8804C104.522 11.0496 103.9 11.1935 103.071 11.312C102.601 11.3797 102.269 11.4559 102.074 11.5405C101.88 11.6252 101.729 11.75 101.624 11.915C101.518 12.0758 101.465 12.2557 101.465 12.4546C101.465 12.7593 101.579 13.0132 101.808 13.2163C102.04 13.4194 102.379 13.521 102.823 13.521C103.263 13.521 103.655 13.4258 103.998 13.2354C104.34 13.0407 104.592 12.7762 104.753 12.4419C104.876 12.1838 104.937 11.8029 104.937 11.2993V10.8804ZM107.66 14.8223L108.771 14.9873C108.818 15.3301 108.947 15.5798 109.158 15.7363C109.442 15.9479 109.829 16.0537 110.32 16.0537C110.849 16.0537 111.257 15.9479 111.545 15.7363C111.833 15.5247 112.027 15.2285 112.129 14.8477C112.188 14.6149 112.216 14.1261 112.211 13.3813C111.712 13.9696 111.09 14.2637 110.345 14.2637C109.418 14.2637 108.701 13.9294 108.193 13.2607C107.686 12.5921 107.432 11.7902 107.432 10.855C107.432 10.2118 107.548 9.6193 107.781 9.07764C108.014 8.53174 108.35 8.11068 108.79 7.81445C109.234 7.51823 109.755 7.37012 110.352 7.37012C111.147 7.37012 111.803 7.69173 112.319 8.33496V7.52246H113.373V13.3496C113.373 14.3991 113.265 15.1418 113.049 15.5776C112.838 16.0177 112.499 16.3647 112.034 16.6187C111.572 16.8726 111.003 16.9995 110.326 16.9995C109.522 16.9995 108.873 16.8175 108.377 16.4536C107.882 16.0939 107.643 15.5501 107.66 14.8223ZM108.606 10.7725C108.606 11.6569 108.782 12.3022 109.133 12.7085C109.484 13.1147 109.924 13.3179 110.453 13.3179C110.978 13.3179 111.418 13.1169 111.773 12.7148C112.129 12.3086 112.307 11.6738 112.307 10.8105C112.307 9.98535 112.123 9.36328 111.754 8.94434C111.39 8.52539 110.95 8.31592 110.434 8.31592C109.926 8.31592 109.495 8.52327 109.139 8.93799C108.784 9.34847 108.606 9.95996 108.606 10.7725ZM115.112 6.27197V4.95801H116.255V6.27197H115.112ZM115.112 14.2637V7.52246H116.255V14.2637H115.112ZM118 14.2637V7.52246H119.029V8.48096C119.524 7.7404 120.239 7.37012 121.174 7.37012C121.581 7.37012 121.953 7.44417 122.292 7.59229C122.634 7.73617 122.89 7.9266 123.06 8.16357C123.229 8.40055 123.347 8.68197 123.415 9.00781C123.457 9.2194 123.479 9.58968 123.479 10.1187V14.2637H122.336V10.1631C122.336 9.69759 122.292 9.35059 122.203 9.12207C122.114 8.88932 121.955 8.70524 121.727 8.56982C121.502 8.43018 121.238 8.36035 120.933 8.36035C120.446 8.36035 120.025 8.51481 119.67 8.82373C119.319 9.13265 119.143 9.71875 119.143 10.582V14.2637H118ZM125.027 14.8223L126.138 14.9873C126.185 15.3301 126.314 15.5798 126.525 15.7363C126.809 15.9479 127.196 16.0537 127.687 16.0537C128.216 16.0537 128.624 15.9479 128.912 15.7363C129.2 15.5247 129.395 15.2285 129.496 14.8477C129.555 14.6149 129.583 14.1261 129.579 13.3813C129.079 13.9696 128.457 14.2637 127.712 14.2637C126.786 14.2637 126.068 13.9294 125.561 13.2607C125.053 12.5921 124.799 11.7902 124.799 10.855C124.799 10.2118 124.915 9.6193 125.148 9.07764C125.381 8.53174 125.717 8.11068 126.157 7.81445C126.602 7.51823 127.122 7.37012 127.719 7.37012C128.514 7.37012 129.17 7.69173 129.687 8.33496V7.52246H130.74V13.3496C130.74 14.3991 130.632 15.1418 130.417 15.5776C130.205 16.0177 129.866 16.3647 129.401 16.6187C128.94 16.8726 128.37 16.9995 127.693 16.9995C126.889 16.9995 126.24 16.8175 125.745 16.4536C125.25 16.0939 125.01 15.5501 125.027 14.8223ZM125.973 10.7725C125.973 11.6569 126.149 12.3022 126.5 12.7085C126.851 13.1147 127.291 13.3179 127.82 13.3179C128.345 13.3179 128.785 13.1169 129.141 12.7148C129.496 12.3086 129.674 11.6738 129.674 10.8105C129.674 9.98535 129.49 9.36328 129.122 8.94434C128.758 8.52539 128.318 8.31592 127.801 8.31592C127.293 8.31592 126.862 8.52327 126.506 8.93799C126.151 9.34847 125.973 9.95996 125.973 10.7725Z" fill="white"/>
</g>
</g>
<defs>
<filter id="filter0_d_3229_1244" x="21.7441" y="2.79932" width="110.996" height="16.2002" filterUnits="userSpaceOnUse" color-interpolation-filters="sRGB">
<feFlood flood-opacity="0" result="BackgroundImageFix"/>
<feColorMatrix in="SourceAlpha" type="matrix" values="0 0 0 0 0 0 0 0 0 0 0 0 0 0 0 0 0 0 127 0" result="hardAlpha"/>
<feOffset/>
<feGaussianBlur stdDeviation="1"/>
<feComposite in2="hardAlpha" operator="out"/>
<feColorMatrix type="matrix" values="0 0 0 0 0 0 0 0 0 0 0 0 0 0 0 0 0 0 0.5 0"/>
<feBlend mode="normal" in2="BackgroundImageFix" result="effect1_dropShadow_3229_1244"/>
<feBlend mode="normal" in="SourceGraphic" in2="effect1_dropShadow_3229_1244" result="shape"/>
</filter>
<clipPath id="clip0_3229_1244">
<rect width="111.55" height="16" fill="white" transform="translate(23.1602 2.26367)"/>
</clipPath>
</defs>
</svg>
