<svg width="112" height="21" viewBox="0 0 112 21" fill="none" xmlns="http://www.w3.org/2000/svg">
<rect x="0.609863" y="0.884705" width="110.33" height="19" rx="9.5" stroke="white"/>
<rect x="7.10986" y="4.3847" width="12" height="12" rx="6" fill="white"/>
<g clip-path="url(#clip0_3229_577)">
<g filter="url(#filter0_d_3229_577)">
<path d="M23.6938 11.395L24.8555 11.2934C24.9105 11.7589 25.0374 12.1419 25.2363 12.4423C25.4395 12.7385 25.7526 12.9798 26.1758 13.166C26.599 13.3479 27.075 13.4389 27.604 13.4389C28.0737 13.4389 28.4884 13.3691 28.8481 13.2294C29.2078 13.0898 29.4744 12.8994 29.6479 12.6581C29.8257 12.4127 29.9146 12.1461 29.9146 11.8583C29.9146 11.5663 29.8299 11.3124 29.6606 11.0966C29.4914 10.8766 29.2121 10.6925 28.8228 10.5444C28.5731 10.447 28.0208 10.2968 27.166 10.0937C26.3112 9.88633 25.7124 9.69167 25.3696 9.5097C24.9253 9.27696 24.5931 8.9892 24.373 8.64642C24.1572 8.29942 24.0493 7.91221 24.0493 7.4848C24.0493 7.01508 24.1826 6.57709 24.4492 6.17084C24.7158 5.76036 25.1051 5.44932 25.6172 5.23773C26.1292 5.02614 26.6984 4.92035 27.3247 4.92035C28.0145 4.92035 28.6217 5.03249 29.1465 5.25677C29.6755 5.47683 30.0817 5.80267 30.3652 6.23431C30.6488 6.66595 30.8011 7.15472 30.8223 7.70062L29.6416 7.78949C29.5781 7.20127 29.3623 6.75694 28.9941 6.45648C28.6302 6.15603 28.0907 6.0058 27.3755 6.0058C26.6307 6.0058 26.0869 6.14333 25.7441 6.4184C25.4056 6.68923 25.2363 7.01719 25.2363 7.40228C25.2363 7.73659 25.3569 8.01166 25.5981 8.22748C25.8351 8.4433 26.453 8.66547 27.4517 8.89398C28.4546 9.11827 29.1423 9.31504 29.5146 9.48431C30.0563 9.73399 30.4562 10.0514 30.7144 10.4365C30.9725 10.8173 31.1016 11.2574 31.1016 11.7568C31.1016 12.2519 30.9598 12.7195 30.6763 13.1596C30.3927 13.5955 29.9844 13.9361 29.4512 14.1816C28.9222 14.4228 28.3255 14.5434 27.6611 14.5434C26.819 14.5434 26.1123 14.4207 25.541 14.1752C24.974 13.9298 24.5275 13.5616 24.2017 13.0707C23.88 12.5756 23.7108 12.017 23.6938 11.395ZM37.0557 14.3847V13.3945C36.5309 14.1562 35.8179 14.537 34.9165 14.537C34.5187 14.537 34.1463 14.4609 33.7993 14.3085C33.4565 14.1562 33.2005 13.9658 33.0312 13.7372C32.8662 13.5045 32.7498 13.221 32.6821 12.8867C32.6356 12.6624 32.6123 12.3069 32.6123 11.8203V7.64349H33.7549V11.3823C33.7549 11.9789 33.7782 12.381 33.8247 12.5883C33.8966 12.8888 34.049 13.1258 34.2817 13.2993C34.5145 13.4685 34.8022 13.5532 35.145 13.5532C35.4878 13.5532 35.8094 13.4664 36.1099 13.2929C36.4103 13.1152 36.6219 12.8761 36.7446 12.5756C36.8716 12.2709 36.9351 11.8308 36.9351 11.2553V7.64349H38.0776V14.3847H37.0557ZM39.417 12.3725L40.5469 12.1948C40.6104 12.6476 40.786 12.9946 41.0737 13.2358C41.3657 13.477 41.772 13.5976 42.2925 13.5976C42.8172 13.5976 43.2065 13.4918 43.4604 13.2802C43.7144 13.0644 43.8413 12.8126 43.8413 12.5248C43.8413 12.2667 43.7292 12.0636 43.5049 11.9155C43.3483 11.8139 42.959 11.6848 42.3369 11.5283C41.499 11.3167 40.9172 11.1347 40.5913 10.9824C40.2697 10.8258 40.0243 10.6121 39.855 10.3412C39.6899 10.0662 39.6074 9.76361 39.6074 9.43353C39.6074 9.13308 39.6751 8.8559 39.8105 8.60199C39.9502 8.34385 40.1385 8.13015 40.3755 7.96088C40.5532 7.82969 40.7944 7.71967 41.0991 7.6308C41.408 7.5377 41.7381 7.49115 42.0894 7.49115C42.6183 7.49115 43.0817 7.56732 43.4795 7.71967C43.8815 7.87201 44.1777 8.07937 44.3682 8.34174C44.5586 8.59987 44.6898 8.94688 44.7617 9.38275L43.6445 9.5351C43.5938 9.18809 43.4456 8.91726 43.2002 8.7226C42.959 8.52793 42.6162 8.4306 42.1719 8.4306C41.6471 8.4306 41.2726 8.51735 41.0483 8.69086C40.8241 8.86436 40.7119 9.06748 40.7119 9.30023C40.7119 9.44834 40.7585 9.58164 40.8516 9.70013C40.9447 9.82286 41.0907 9.92442 41.2896 10.0048C41.4038 10.0471 41.7402 10.1445 42.2988 10.2968C43.1071 10.5126 43.6699 10.6904 43.9873 10.83C44.3089 10.9654 44.5607 11.1643 44.7427 11.4267C44.9246 11.6891 45.0156 12.0149 45.0156 12.4042C45.0156 12.7851 44.9035 13.1448 44.6792 13.4833C44.4591 13.8176 44.1396 14.0779 43.7207 14.2641C43.3018 14.4461 42.8278 14.537 42.2988 14.537C41.4229 14.537 40.7542 14.3551 40.293 13.9911C39.8359 13.6272 39.5439 13.0877 39.417 12.3725ZM48.8687 13.3627L49.0337 14.372C48.7121 14.4397 48.4243 14.4736 48.1704 14.4736C47.7557 14.4736 47.4341 14.408 47.2056 14.2768C46.9771 14.1456 46.8162 13.9742 46.7231 13.7626C46.63 13.5468 46.5835 13.0961 46.5835 12.4106V8.53217H45.7456V7.64349H46.5835V5.97406L47.7197 5.28851V7.64349H48.8687V8.53217H47.7197V12.4741C47.7197 12.7999 47.7388 13.0094 47.7769 13.1025C47.8192 13.1956 47.8848 13.2696 47.9736 13.3246C48.0667 13.3797 48.1979 13.4072 48.3672 13.4072C48.4941 13.4072 48.6613 13.3924 48.8687 13.3627ZM54.3911 13.5532C53.9679 13.9129 53.5596 14.1668 53.166 14.3149C52.7767 14.463 52.3577 14.537 51.9092 14.537C51.1686 14.537 50.5994 14.3572 50.2017 13.9975C49.8039 13.6336 49.605 13.1702 49.605 12.6074C49.605 12.2773 49.679 11.9768 49.8271 11.706C49.9795 11.4309 50.1763 11.2109 50.4175 11.0458C50.6629 10.8808 50.938 10.756 51.2427 10.6713C51.467 10.6121 51.8055 10.555 52.2583 10.4999C53.1808 10.3899 53.86 10.2587 54.2959 10.1064C54.3001 9.94981 54.3022 9.85036 54.3022 9.80804C54.3022 9.34255 54.1943 9.01459 53.9785 8.82416C53.6865 8.56602 53.2528 8.43695 52.6772 8.43695C52.1398 8.43695 51.742 8.53217 51.4839 8.7226C51.23 8.90879 51.0417 9.24099 50.9189 9.71918L49.8018 9.56683C49.9033 9.08864 50.0705 8.70355 50.3032 8.41156C50.536 8.11534 50.8724 7.88894 51.3125 7.73236C51.7526 7.57155 52.2625 7.49115 52.8423 7.49115C53.4178 7.49115 53.8854 7.55886 54.2451 7.69427C54.6048 7.82969 54.8693 8.00108 55.0386 8.20844C55.2078 8.41156 55.3263 8.6697 55.394 8.98285C55.4321 9.17751 55.4512 9.52875 55.4512 10.0366V11.56C55.4512 12.6222 55.4744 13.295 55.521 13.5786C55.5718 13.8578 55.6691 14.1266 55.813 14.3847H54.6196C54.5011 14.1477 54.425 13.8705 54.3911 13.5532ZM54.2959 11.0014C53.8812 11.1707 53.2591 11.3146 52.4297 11.433C51.96 11.5008 51.6278 11.5769 51.4331 11.6616C51.2384 11.7462 51.0882 11.871 50.9824 12.0361C50.8766 12.1969 50.8237 12.3767 50.8237 12.5756C50.8237 12.8803 50.938 13.1342 51.1665 13.3373C51.3993 13.5405 51.7378 13.642 52.1821 13.642C52.6222 13.642 53.0137 13.5468 53.3564 13.3564C53.6992 13.1617 53.951 12.8972 54.1118 12.5629C54.2345 12.3048 54.2959 11.9239 54.2959 11.4203V11.0014ZM57.2349 6.39301V5.07904H58.3774V6.39301H57.2349ZM57.2349 14.3847V7.64349H58.3774V14.3847H57.2349ZM60.123 14.3847V7.64349H61.1514V8.60199C61.6465 7.86143 62.3617 7.49115 63.2969 7.49115C63.7031 7.49115 64.0755 7.56521 64.4141 7.71332C64.7568 7.8572 65.0129 8.04763 65.1821 8.28461C65.3514 8.52159 65.4699 8.803 65.5376 9.12885C65.5799 9.34043 65.6011 9.71071 65.6011 10.2397V14.3847H64.4585V10.2841C64.4585 9.81862 64.4141 9.47162 64.3252 9.2431C64.2363 9.01036 64.0776 8.82627 63.8491 8.69086C63.6248 8.55121 63.3604 8.48138 63.0557 8.48138C62.569 8.48138 62.1479 8.63584 61.7925 8.94476C61.4412 9.25368 61.2656 9.83978 61.2656 10.7031V14.3847H60.123ZM71.7583 13.5532C71.3351 13.9129 70.9268 14.1668 70.5332 14.3149C70.1439 14.463 69.7249 14.537 69.2764 14.537C68.5358 14.537 67.9666 14.3572 67.5688 13.9975C67.1711 13.6336 66.9722 13.1702 66.9722 12.6074C66.9722 12.2773 67.0462 11.9768 67.1943 11.706C67.3467 11.4309 67.5435 11.2109 67.7847 11.0458C68.0301 10.8808 68.3052 10.756 68.6099 10.6713C68.8341 10.6121 69.1727 10.555 69.6255 10.4999C70.548 10.3899 71.2272 10.2587 71.6631 10.1064C71.6673 9.94981 71.6694 9.85036 71.6694 9.80804C71.6694 9.34255 71.5615 9.01459 71.3457 8.82416C71.0537 8.56602 70.62 8.43695 70.0444 8.43695C69.507 8.43695 69.1092 8.53217 68.8511 8.7226C68.5972 8.90879 68.4089 9.24099 68.2861 9.71918L67.1689 9.56683C67.2705 9.08864 67.4377 8.70355 67.6704 8.41156C67.9032 8.11534 68.2396 7.88894 68.6797 7.73236C69.1198 7.57155 69.6297 7.49115 70.2095 7.49115C70.785 7.49115 71.2526 7.55886 71.6123 7.69427C71.972 7.82969 72.2365 8.00108 72.4058 8.20844C72.575 8.41156 72.6935 8.6697 72.7612 8.98285C72.7993 9.17751 72.8184 9.52875 72.8184 10.0366V11.56C72.8184 12.6222 72.8416 13.295 72.8882 13.5786C72.939 13.8578 73.0363 14.1266 73.1802 14.3847H71.9868C71.8683 14.1477 71.7922 13.8705 71.7583 13.5532ZM71.6631 11.0014C71.2484 11.1707 70.6263 11.3146 69.7969 11.433C69.3271 11.5008 68.995 11.5769 68.8003 11.6616C68.6056 11.7462 68.4554 11.871 68.3496 12.0361C68.2438 12.1969 68.1909 12.3767 68.1909 12.5756C68.1909 12.8803 68.3052 13.1342 68.5337 13.3373C68.7664 13.5405 69.105 13.642 69.5493 13.642C69.9894 13.642 70.3809 13.5468 70.7236 13.3564C71.0664 13.1617 71.3182 12.8972 71.479 12.5629C71.6017 12.3048 71.6631 11.9239 71.6631 11.4203V11.0014ZM75.6494 14.3847H74.5894V5.07904H75.7319V8.39886C76.2144 7.79372 76.8301 7.49115 77.5791 7.49115C77.9938 7.49115 78.3853 7.57579 78.7534 7.74506C79.1258 7.9101 79.4305 8.14496 79.6675 8.44965C79.9087 8.7501 80.097 9.11403 80.2324 9.54144C80.3678 9.96885 80.4355 10.4259 80.4355 10.9125C80.4355 12.0678 80.1499 12.9607 79.5786 13.5912C79.0073 14.2218 78.3218 14.537 77.522 14.537C76.7264 14.537 76.1022 14.2049 75.6494 13.5405V14.3847ZM75.6367 10.9633C75.6367 11.7716 75.7467 12.3556 75.9668 12.7153C76.3265 13.3035 76.8132 13.5976 77.4268 13.5976C77.9261 13.5976 78.3577 13.3818 78.7217 12.9501C79.0856 12.5143 79.2676 11.8668 79.2676 11.0078C79.2676 10.1275 79.092 9.47797 78.7407 9.05902C78.3937 8.64008 77.9727 8.4306 77.4775 8.4306C76.9782 8.4306 76.5465 8.64854 76.1826 9.08441C75.8187 9.51605 75.6367 10.1424 75.6367 10.9633ZM81.8384 6.39301V5.07904H82.981V6.39301H81.8384ZM81.8384 14.3847V7.64349H82.981V14.3847H81.8384ZM84.7012 14.3847V5.07904H85.8438V14.3847H84.7012ZM87.6274 6.39301V5.07904H88.77V6.39301H87.6274ZM87.6274 14.3847V7.64349H88.77V14.3847H87.6274ZM93.0103 13.3627L93.1753 14.372C92.8537 14.4397 92.5659 14.4736 92.312 14.4736C91.8973 14.4736 91.5757 14.408 91.3472 14.2768C91.1187 14.1456 90.9578 13.9742 90.8647 13.7626C90.7716 13.5468 90.7251 13.0961 90.7251 12.4106V8.53217H89.8872V7.64349H90.7251V5.97406L91.8613 5.28851V7.64349H93.0103V8.53217H91.8613V12.4741C91.8613 12.7999 91.8804 13.0094 91.9185 13.1025C91.9608 13.1956 92.0264 13.2696 92.1152 13.3246C92.2083 13.3797 92.3395 13.4072 92.5088 13.4072C92.6357 13.4072 92.8029 13.3924 93.0103 13.3627ZM94.083 16.9809L93.9561 15.9081C94.2057 15.9759 94.4237 16.0097 94.6099 16.0097C94.8638 16.0097 95.0669 15.9674 95.2192 15.8828C95.3716 15.7981 95.4964 15.6796 95.5938 15.5273C95.6657 15.413 95.7821 15.1295 95.9429 14.6767C95.964 14.6132 95.9979 14.5201 96.0444 14.3974L93.4863 7.64349H94.7178L96.1206 11.5473C96.3026 12.0424 96.4655 12.5629 96.6094 13.1088C96.7406 12.5841 96.8971 12.072 97.0791 11.5727L98.52 7.64349H99.6626L97.0981 14.499C96.8231 15.2395 96.6094 15.7495 96.457 16.0287C96.2539 16.4054 96.0212 16.6804 95.7588 16.8539C95.4964 17.0317 95.1833 17.1205 94.8193 17.1205C94.5993 17.1205 94.3538 17.074 94.083 16.9809Z" fill="white"/>
</g>
</g>
<defs>
<filter id="filter0_d_3229_577" x="21.6938" y="2.92035" width="79.9688" height="16.2002" filterUnits="userSpaceOnUse" color-interpolation-filters="sRGB">
<feFlood flood-opacity="0" result="BackgroundImageFix"/>
<feColorMatrix in="SourceAlpha" type="matrix" values="0 0 0 0 0 0 0 0 0 0 0 0 0 0 0 0 0 0 127 0" result="hardAlpha"/>
<feOffset/>
<feGaussianBlur stdDeviation="1"/>
<feComposite in2="hardAlpha" operator="out"/>
<feColorMatrix type="matrix" values="0 0 0 0 0 0 0 0 0 0 0 0 0 0 0 0 0 0 0.5 0"/>
<feBlend mode="normal" in2="BackgroundImageFix" result="effect1_dropShadow_3229_577"/>
<feBlend mode="normal" in="SourceGraphic" in2="effect1_dropShadow_3229_577" result="shape"/>
</filter>
<clipPath id="clip0_3229_577">
<rect width="81.33" height="16" fill="white" transform="translate(23.1099 2.3847)"/>
</clipPath>
</defs>
</svg>
