<svg width="70" height="21" viewBox="0 0 70 21" fill="none" xmlns="http://www.w3.org/2000/svg">
<rect x="0.660156" y="1.18115" width="68.7" height="19" rx="9.5" stroke="white"/>
<rect x="7.16016" y="4.68115" width="12" height="12" rx="6" fill="white"/>
<g clip-path="url(#clip0_3229_1185)">
<g filter="url(#filter0_d_3229_1185)">
<path d="M26.8228 14.6812L23.2173 5.37549H24.5503L26.9688 12.1357C27.1634 12.6774 27.3263 13.1852 27.4575 13.6592C27.6014 13.1514 27.7686 12.6436 27.959 12.1357L30.4727 5.37549H31.7295L28.0859 14.6812H26.8228ZM31.5391 11.3105C31.5391 10.0622 31.8861 9.13753 32.5801 8.53662C33.1598 8.03727 33.8665 7.7876 34.7002 7.7876C35.627 7.7876 36.3844 8.09229 36.9727 8.70166C37.5609 9.3068 37.855 10.1447 37.855 11.2153C37.855 12.0828 37.7238 12.7663 37.4614 13.2656C37.2033 13.7607 36.8245 14.1458 36.3252 14.4209C35.8301 14.696 35.2884 14.8335 34.7002 14.8335C33.7565 14.8335 32.9927 14.5309 32.4087 13.9258C31.8289 13.3206 31.5391 12.4489 31.5391 11.3105ZM32.7134 11.3105C32.7134 12.1738 32.9017 12.8213 33.2783 13.2529C33.6549 13.6803 34.1289 13.894 34.7002 13.894C35.2673 13.894 35.7391 13.6782 36.1157 13.2466C36.4924 12.8149 36.6807 12.1569 36.6807 11.2725C36.6807 10.4388 36.4902 9.80827 36.1094 9.38086C35.7327 8.94922 35.263 8.7334 34.7002 8.7334C34.1289 8.7334 33.6549 8.9471 33.2783 9.37451C32.9017 9.80192 32.7134 10.4473 32.7134 11.3105ZM41.6953 13.6592L41.8604 14.6685C41.5387 14.7362 41.251 14.77 40.9971 14.77C40.5824 14.77 40.2607 14.7044 40.0322 14.5732C39.8037 14.4421 39.6429 14.2707 39.5498 14.0591C39.4567 13.8433 39.4102 13.3926 39.4102 12.707V8.82861H38.5723V7.93994H39.4102V6.27051L40.5464 5.58496V7.93994H41.6953V8.82861H40.5464V12.7705C40.5464 13.0964 40.5654 13.3058 40.6035 13.3989C40.6458 13.492 40.7114 13.5661 40.8003 13.6211C40.8934 13.6761 41.0246 13.7036 41.1938 13.7036C41.3208 13.7036 41.488 13.6888 41.6953 13.6592ZM42.8252 6.68945V5.37549H43.9678V6.68945H42.8252ZM42.8252 14.6812V7.93994H43.9678V14.6812H42.8252ZM45.7134 14.6812V7.93994H46.7417V8.89844C47.2368 8.15788 47.952 7.7876 48.8872 7.7876C49.2935 7.7876 49.6659 7.86165 50.0044 8.00977C50.3472 8.15365 50.6032 8.34408 50.7725 8.58105C50.9417 8.81803 51.0602 9.09945 51.1279 9.42529C51.1702 9.63688 51.1914 10.0072 51.1914 10.5361V14.6812H50.0488V10.5806C50.0488 10.1151 50.0044 9.76807 49.9155 9.53955C49.8267 9.3068 49.668 9.12272 49.4395 8.9873C49.2152 8.84766 48.9507 8.77783 48.646 8.77783C48.1593 8.77783 47.7383 8.93229 47.3828 9.24121C47.0316 9.55013 46.856 10.1362 46.856 10.9995V14.6812H45.7134ZM52.7402 15.2397L53.8511 15.4048C53.8976 15.7476 54.0267 15.9972 54.2383 16.1538C54.5218 16.3654 54.909 16.4712 55.3999 16.4712C55.9289 16.4712 56.3372 16.3654 56.625 16.1538C56.9128 15.9422 57.1074 15.646 57.209 15.2651C57.2682 15.0324 57.2957 14.5436 57.2915 13.7988C56.7922 14.387 56.1701 14.6812 55.4253 14.6812C54.4985 14.6812 53.7812 14.3468 53.2734 13.6782C52.7656 13.0096 52.5117 12.2077 52.5117 11.2725C52.5117 10.6292 52.6281 10.0368 52.8608 9.49512C53.0936 8.94922 53.43 8.52816 53.8701 8.23193C54.3145 7.93571 54.835 7.7876 55.4316 7.7876C56.2272 7.7876 56.8831 8.10921 57.3994 8.75244V7.93994H58.4531V13.7671C58.4531 14.8166 58.3452 15.5592 58.1294 15.9951C57.9178 16.4352 57.5793 16.7822 57.1138 17.0361C56.6525 17.29 56.0833 17.417 55.4062 17.417C54.6022 17.417 53.9526 17.235 53.4575 16.8711C52.9624 16.5114 52.7233 15.9676 52.7402 15.2397ZM53.686 11.1899C53.686 12.0744 53.8617 12.7197 54.2129 13.126C54.5641 13.5322 55.0042 13.7354 55.5332 13.7354C56.0579 13.7354 56.498 13.5343 56.8535 13.1323C57.209 12.7261 57.3867 12.0913 57.3867 11.228C57.3867 10.4028 57.2026 9.78076 56.8345 9.36182C56.4705 8.94287 56.0304 8.7334 55.5142 8.7334C55.0063 8.7334 54.5747 8.94076 54.2192 9.35547C53.8638 9.76595 53.686 10.3774 53.686 11.1899Z" fill="white"/>
</g>
</g>
<defs>
<filter id="filter0_d_3229_1185" x="21.2173" y="3.37549" width="39.2358" height="16.0415" filterUnits="userSpaceOnUse" color-interpolation-filters="sRGB">
<feFlood flood-opacity="0" result="BackgroundImageFix"/>
<feColorMatrix in="SourceAlpha" type="matrix" values="0 0 0 0 0 0 0 0 0 0 0 0 0 0 0 0 0 0 127 0" result="hardAlpha"/>
<feOffset/>
<feGaussianBlur stdDeviation="1"/>
<feComposite in2="hardAlpha" operator="out"/>
<feColorMatrix type="matrix" values="0 0 0 0 0 0 0 0 0 0 0 0 0 0 0 0 0 0 0.5 0"/>
<feBlend mode="normal" in2="BackgroundImageFix" result="effect1_dropShadow_3229_1185"/>
<feBlend mode="normal" in="SourceGraphic" in2="effect1_dropShadow_3229_1185" result="shape"/>
</filter>
<clipPath id="clip0_3229_1185">
<rect width="39.7" height="16" fill="white" transform="translate(23.1602 2.68115)"/>
</clipPath>
</defs>
</svg>
