<svg width="47" height="21" viewBox="0 0 47 21" fill="none" xmlns="http://www.w3.org/2000/svg">
<rect x="0.660156" y="0.554932" width="45.73" height="19" rx="9.5" stroke="white"/>
<rect x="7.16016" y="4.05493" width="12" height="12" rx="6" fill="white"/>
<g clip-path="url(#clip0_3229_339)">
<g filter="url(#filter0_d_3229_339)">
<path d="M23.3614 13.0549V12.1712L27.0485 7.56118C27.3103 7.23388 27.5591 6.94913 27.7947 6.70693H23.7788V5.85758H28.9337V6.70693L24.8932 11.6999L24.4563 12.2056H29.0516V13.0549H23.3614ZM30.0433 13.0549V5.85758H30.9957V9.4268L34.5699 5.85758H35.8611L32.8417 8.77383L35.9936 13.0549H34.7368L32.174 9.41207L30.9957 10.5609V13.0549H30.0433Z" fill="white"/>
</g>
</g>
<defs>
<filter id="filter0_d_3229_339" x="21.3613" y="3.85754" width="16.6323" height="11.1974" filterUnits="userSpaceOnUse" color-interpolation-filters="sRGB">
<feFlood flood-opacity="0" result="BackgroundImageFix"/>
<feColorMatrix in="SourceAlpha" type="matrix" values="0 0 0 0 0 0 0 0 0 0 0 0 0 0 0 0 0 0 127 0" result="hardAlpha"/>
<feOffset/>
<feGaussianBlur stdDeviation="1"/>
<feComposite in2="hardAlpha" operator="out"/>
<feColorMatrix type="matrix" values="0 0 0 0 0 0 0 0 0 0 0 0 0 0 0 0 0 0 0.5 0"/>
<feBlend mode="normal" in2="BackgroundImageFix" result="effect1_dropShadow_3229_339"/>
<feBlend mode="normal" in="SourceGraphic" in2="effect1_dropShadow_3229_339" result="shape"/>
</filter>
<clipPath id="clip0_3229_339">
<rect width="16.73" height="16" fill="white" transform="translate(23.1602 2.05493)"/>
</clipPath>
</defs>
</svg>
